<svg id="Capa_1" enable-background="new 0 0 511.959 511.959" height="512" viewBox="0 0 511.959 511.959" width="512" xmlns="http://www.w3.org/2000/svg"><g><g><g clip-rule="evenodd" fill-rule="evenodd"><path d="m174.726 113.124c-114.578 157.776 110.014 188.792 150.289 282.335 63.081-130.57 48.275-336.191-150.289-282.335z" fill="#aae79a"/><path d="m289.196 502.772c63.551-90.151-78.998-167.261-109.236-186.403 28.483 77.59-19.907 204.16 109.236 186.403z" fill="#aae79a"/><path d="m143.855 92.341c15.239-5.425 22.293-24.711 15.755-43.076-6.538-18.364-24.192-28.854-39.431-23.428-15.239 5.425-22.293 24.711-15.754 43.076 6.537 18.364 24.191 28.853 39.43 23.428zm237.745 29.401c-9.156 7.264-12.408 19.623-7.264 27.605s16.736 8.565 25.891 1.301c9.156-7.264 12.408-19.623 7.265-27.605-5.145-7.982-16.736-8.565-25.892-1.301zm-48.821-48.984c-8.101 10.769-7.908 25.34.431 32.545 8.339 7.206 21.667 4.317 29.768-6.451 8.1-10.768 7.908-25.34-.432-32.545-8.338-7.207-21.665-4.318-29.767 6.451zm-67.216-33.066c-2.655 16.481 4.915 32.335 16.909 35.411 11.994 3.075 23.87-7.793 26.526-24.274 2.655-16.481-4.915-32.335-16.909-35.411-11.994-3.075-23.87 7.792-26.526 24.274zm-74.154-.476c.497 17.719 10.996 32.25 23.451 32.454 12.454.204 22.148-13.994 21.651-31.714-.497-17.719-10.996-32.249-23.451-32.454-12.455-.203-22.148 13.995-21.651 31.714z" fill="#aae79a"/><path d="m174.726 113.124c-114.578 157.776 110.014 188.792 150.289 282.335 4.875-10.091 9.282-20.632 13.177-31.465-55.598-79.193-238.506-115.795-148.794-254.419-4.785 1.035-9.654 2.187-14.672 3.549z" fill="#6ad34d"/><path d="m207.405 333.401c-11.769-7.585-21.663-13.371-27.445-17.031 27.644 75.303-17.109 196.733 98.289 187.591-80.042-7.475-55.124-101.206-70.844-170.56z" fill="#6ad34d"/></g><g><path d="m297.344 162.312h-15v-15h15zm-30-15h-15v-15h15z" fill="#fff"/></g></g><g><path d="m280.61 82.368c1.956.501 3.941.749 5.924.749 4.806 0 9.599-1.456 13.916-4.284 8.265-5.415 14.079-15.187 15.953-26.811 3.306-20.523-6.555-39.793-22.451-43.869-6.698-1.716-13.742-.461-19.841 3.535-8.265 5.415-14.079 15.187-15.952 26.811-3.307 20.524 6.554 39.793 22.451 43.869zm-7.642-41.483c1.187-7.361 4.687-13.586 9.363-16.65 1.868-1.224 3.763-1.838 5.658-1.838.746 0 1.493.096 2.237.287 8.178 2.097 13.383 14.44 11.368 26.953-1.187 7.362-4.687 13.586-9.364 16.65-2.604 1.705-5.258 2.227-7.895 1.552-8.178-2.098-13.383-14.441-11.367-26.954z"/><path d="m328.306 110.977c4.375 3.781 9.891 5.79 15.765 5.79.924 0 1.858-.05 2.798-.15 8.384-.897 16.44-5.729 22.103-13.257 10.587-14.075 9.919-32.844-1.522-42.729-5.064-4.375-11.655-6.375-18.561-5.639-8.383.897-16.44 5.729-22.104 13.257-10.587 14.074-9.919 32.843 1.521 42.728zm10.466-33.71c3.176-4.221 7.445-6.903 11.713-7.36.369-.039.769-.064 1.192-.064 1.796 0 4.01.448 5.966 2.139 5.31 4.588 5.008 14.828-.659 22.361-3.175 4.22-7.443 6.903-11.712 7.359-1.934.206-4.743.014-7.159-2.074-5.309-4.589-5.008-14.829.659-22.361z"/><path d="m146.371 99.406c19.11-6.804 28.219-30.426 20.304-52.657-7.915-22.23-29.899-34.783-49.012-27.978-19.11 6.803-28.219 30.425-20.304 52.657 6.457 18.136 22.276 29.829 38.262 29.829 3.609 0 7.229-.597 10.75-1.851zm-34.881-33.009c-5.141-14.44-.115-29.465 11.204-33.495 1.909-.679 3.876-1.003 5.853-1.003 9.747 0 19.723 7.878 23.997 19.882 5.141 14.439.114 29.465-11.205 33.495-11.316 4.027-24.709-4.44-29.849-18.879z"/><path d="m214.737 79.169c.127.002.252.003.379.003 6.533 0 12.864-2.772 17.866-7.832 7.362-7.448 11.381-18.964 11.026-31.594-.617-22.012-14.157-39.469-30.825-39.743-6.697-.119-13.147 2.671-18.245 7.829-7.361 7.448-11.38 18.964-11.026 31.594.617 22.013 14.157 39.47 30.825 39.743zm-9.131-60.791c2.215-2.242 4.633-3.377 7.189-3.377.047 0 .094 0 .142.001 9.063.149 15.747 13.382 16.077 25.165.236 8.433-2.268 16.145-6.7 20.628-2.257 2.283-4.765 3.419-7.331 3.376-9.063-.148-15.747-13.381-16.077-25.165-.236-8.433 2.268-16.144 6.7-20.628z"/><path d="m413.796 118.98c-3.295-5.113-8.5-8.488-14.656-9.505-7.438-1.232-15.532 1.1-22.202 6.392-12.282 9.745-16.194 26.236-8.907 37.543 3.294 5.112 8.499 8.488 14.655 9.505 1.305.215 2.629.322 3.962.322 6.271 0 12.739-2.35 18.239-6.714 12.282-9.744 16.195-26.235 8.909-37.543zm-18.231 25.792c-3.311 2.626-7.213 3.874-10.432 3.344-1.982-.328-3.494-1.28-4.493-2.832-3-4.655-.373-12.911 5.622-17.667 2.807-2.227 6.038-3.464 8.92-3.464.517 0 1.022.04 1.512.121 1.982.328 3.494 1.28 4.494 2.832 2.998 4.655.371 12.91-5.623 17.666z"/><path d="m316.55 123.898c-16.381-13.69-36.441-22.291-59.625-25.562-24.587-3.469-52.903-.93-84.163 7.549l-2.552.692-1.554 2.139c-26.954 37.117-37.559 69.873-32.421 100.14 8.115 47.811 54.124 79.722 98.617 110.582 36.124 25.055 70.244 48.721 83.274 78.986l6.496 15.088 7.146-14.791c11.151-23.082 19.786-47.965 25.664-73.96l-14.631-3.309c-4.416 19.528-10.693 39.012-18.369 57.115-17.75-27.562-49.847-49.826-81.032-71.456-41.945-29.092-85.317-59.176-92.377-100.767-4.159-24.503 4.19-51.627 25.496-82.748 10.779 7.952 23.56 18.911 36.964 32.623l-15.032 51.452 14.398 4.207 12.536-42.908c19.614 21.987 39.67 49.5 56.073 81.779l-13.24 28.529 13.606 6.314 7.995-17.226c7.004 15.875 13.053 32.76 17.719 50.583l14.511-3.799c-9.952-38.013-25.95-71.959-44.228-101.139l26.696 1.461.819-14.978-37.787-2.067c-25.299-36.514-53.416-64.328-75.461-81.788 48.874-10.392 87.466-4.112 114.842 18.768 16.911 14.133 29.16 34.359 36.406 60.114 6.711 23.854 8.882 52.366 6.276 82.453l14.944 1.294c2.76-31.869.416-62.232-6.78-87.809-8.08-28.721-21.951-51.452-41.226-67.561z"/><path d="m256.264 359.963-9.752 11.397c23.243 19.889 38.788 39.621 46.204 58.649 8.206 21.057 6.634 41.059-4.824 60.901-14.708-15.582-27.21-35.857-36.17-55.536l15.143-12.235-9.427-11.668-11.705 9.457c-3.031-8.107-5.371-15.87-6.898-22.87l-14.655 3.197c3.257 14.93 9.928 33.078 19.146 51.017l-15.724 1.213 1.154 14.956 22.583-1.743c6.417 10.707 13.693 20.992 21.636 30.082-21.404 1.058-37.297-2.855-48.288-11.884-21.166-17.39-23.267-53.198-25.491-91.109-1.201-20.474-2.434-41.472-6.714-60.932 11.989 7.412 27.264 17.25 42.671 29.247l9.216-11.836c-20.054-15.614-39.665-27.559-52.641-35.462-3.059-1.863-5.7-3.472-7.756-4.773l-18.665-11.816 7.613 20.737c8.166 22.244 9.761 49.426 11.303 75.714 2.422 41.278 4.709 80.267 30.943 101.82 12.597 10.35 29.484 15.471 51.248 15.471 7.368 0 15.296-.587 23.804-1.757l3.23-.444 1.878-2.665c18.601-26.386 22.425-54.153 11.366-82.53-8.322-21.352-25.288-43.086-50.428-64.598z"/><path d="m346.85 293.505h15v15h-15z" transform="matrix(.167 -.986 .986 .167 -1.543 600.185)"/></g></g></svg>