<svg height="512" viewBox="0 0 512 512" width="512" xmlns="http://www.w3.org/2000/svg"><g id="Filled_outline" data-name="Filled outline"><path d="m288 72a48 48 0 0 1 48 48v120a0 0 0 0 1 0 0 48 48 0 0 1 -48-48v-120a0 0 0 0 1 0 0z" fill="#6e3c26"/><path d="m344 320v48h-240v-48a40 40 0 0 1 40-40h32a16 16 0 0 0 16-16v-48h64v48a16 16 0 0 0 16 16h32a40 40 0 0 1 40 40z" fill="#fec9a3"/><path d="m256 216v32.51a72.1 72.1 0 0 1 -64 0v-32.51z" fill="#fec093"/><path d="m304 280h-16c-21.735 59.77-106.265 59.77-128 0h-17.815a48 48 0 0 0 -46.771 37.207l-39.414 170.793h64l24-80 16 24v56h184v-168a40 40 0 0 0 -40-40z" fill="#7eb457"/><path d="m144 136h16a0 0 0 0 1 0 0v48a0 0 0 0 1 0 0h-16a24 24 0 0 1 -24-24 24 24 0 0 1 24-24z" fill="#fec093"/><path d="m301.187 488h133.626a24 24 0 0 0 23.815-21.023l13.372-106.977h-208l13.372 106.977a24 24 0 0 0 23.815 21.023z" fill="#d75246"/><path d="m432 328-35.145-86.524a14.838 14.838 0 0 0 -22.172-6.886 15.611 15.611 0 0 0 -5.608 18.522l29.202 74.888z" fill="#4c5985"/><path d="m304 328 35.145-86.524a14.838 14.838 0 0 1 22.172-6.886 15.611 15.611 0 0 1 5.608 18.522l-29.202 74.888z" fill="#4c5985"/><rect fill="#e06257" height="32" rx="16" transform="matrix(-1 0 0 -1 736 688)" width="240" x="248" y="328"/><path d="m88 488h-64v-112h40z" fill="#fec093"/><path d="m99.9 316.866a16.97 16.97 0 0 1 -.1 24.1l-43.8 43.034-24-24 44-43.239a16.97 16.97 0 0 1 23.9.105z" fill="#fec093"/><rect fill="#d75246" height="128" rx="16" transform="matrix(-1 0 0 -1 120 512)" width="88" x="16" y="192"/><rect fill="#fec9a3" height="80" rx="16" transform="matrix(-1 0 0 -1 96 704)" width="64" x="16" y="312"/><path d="m24 440v48h64l-10.286-48z" fill="#88c25e"/><path d="m312 128h16a0 0 0 0 1 0 0v48a0 0 0 0 1 0 0h-16a24 24 0 0 1 -24-24 24 24 0 0 1 24-24z" fill="#fec093" transform="matrix(-1 0 0 -1 616 304)"/><path d="m224 240a72 72 0 0 1 -72-72v-72c24-32 112-40 144 0v72a72 72 0 0 1 -72 72z" fill="#fec9a3"/><path d="m304 128a23.949 23.949 0 0 1 8 1.371v-25.371a80 80 0 0 0 -80-80h-16a80 80 0 0 0 -80 80v40c44.888-10.493 85.768-14.174 118.779-41.182l18.11-14.818 23.111 40z" fill="#7a432a"/><path d="m164.028 357.154-12.236-10.308a68.155 68.155 0 0 0 -14.449 57.464l-24.99 81.34 15.294 4.7 19.1-62.154a74.4 74.4 0 0 0 4.567 6.627v53.177h16v-56a8.007 8.007 0 0 0 -1.874-5.146c-17.399-20.707-17.991-50.021-1.412-69.7z"/><circle cx="260" cy="140" r="12"/><path d="m224 184a8.009 8.009 0 0 1 -8-8h-16a24 24 0 0 0 48 0h-16a8.009 8.009 0 0 1 -8 8z"/><path d="m360 432h16v32h-16z"/><path d="m328 432h16v32h-16z"/><path d="m296 432h16v32h-16z"/><path d="m392 432h16v32h-16z"/><path d="m424 432h16v32h-16z"/><path d="m360 384h16v32h-16z"/><path d="m328 384h16v32h-16z"/><path d="m296 384h16v32h-16z"/><path d="m392 384h16v32h-16z"/><path d="m424 384h16v32h-16z"/><path d="m472 320h-34.615l-33.118-81.534a23.039 23.039 0 0 0 -14.728-13.5 22.445 22.445 0 0 0 -21.539 4.734 22.432 22.432 0 0 0 -21.54-4.728 22.874 22.874 0 0 0 -2.46.9v-105.872a56.014 56.014 0 0 0 -30.835-50.029 88.446 88.446 0 0 0 -81.165-53.971h-16a87.173 87.173 0 0 0 -53.73 18.3l9.777 12.665a71.3 71.3 0 0 1 43.953-14.965h16a72.344 72.344 0 0 1 67.415 46.683 71.492 71.492 0 0 1 4.585 25.317v16h-3.383l-20.8-36a8 8 0 0 0 -11.993-2.189l-18.11 14.817c-25.117 20.552-55.1 26.787-89.809 34.006-5.2 1.082-10.515 2.187-15.9 3.363v-29.997a72.006 72.006 0 0 1 17.205-46.706l-12.177-10.386a88.023 88.023 0 0 0 -21.033 57.092v28.319a31.984 31.984 0 0 0 16 59.681h3.662a79.616 79.616 0 0 0 36.338 45.288v26.712a8.009 8.009 0 0 1 -8 8h-32c-.426 0-.852 0-1.277.025a48.045 48.045 0 0 0 -11.01 1.568l4.08 15.47a32.072 32.072 0 0 1 7.43-1.045c.095 0 .22-.008.316-.014.152-.008.307 0 .461 0h10.614a74.651 74.651 0 0 0 27.092 32.3 76.5 76.5 0 0 0 42.294 12.524v-16c-17.621 0-39.113-7.8-51.449-28.828h3.449a24.028 24.028 0 0 0 24-24v-19.661a80.5 80.5 0 0 0 48 0v19.661a24.027 24.027 0 0 0 24 24h3.436a57.573 57.573 0 0 1 -14.481 16.461l9.779 12.664a75.351 75.351 0 0 0 22.656-29.125h10.61v-16h-32a8.009 8.009 0 0 1 -8-8v-26.731a80.777 80.777 0 0 0 22.373-19.22 55.677 55.677 0 0 0 41.713 29.4l-29.471 72.551h-34.615a24 24 0 0 0 -7.2 46.895l12.635 101.074a32.05 32.05 0 0 0 31.752 28.031h133.626a32.05 32.05 0 0 0 31.753-28.031l2.335-18.682-15.877-1.987-2.335 18.683a16.023 16.023 0 0 1 -15.876 14.017h-133.626a16.023 16.023 0 0 1 -15.876-14.015l-12.249-97.985h189.876l-6.89 55.119 15.877 1.984 7.275-58.203a24 24 0 0 0 -7.2-46.9zm-328-144a15.978 15.978 0 0 1 -12.776-25.6 7.936 7.936 0 0 0 6.6 1.393q3.1-.723 6.18-1.408v17.615c0 2.669.141 5.34.406 8zm144-8a63.3 63.3 0 0 1 -6.547 28.224c-.037.076-.072.151-.107.228a64.574 64.574 0 0 1 -28.912 28.9 64.024 64.024 0 0 1 -90.849-43.107 64.879 64.879 0 0 1 -1.585-14.245v-21.042l3.163-.659c4.486-.933 8.941-1.86 13.357-2.814a11.99 11.99 0 0 0 23.285-5.579c21.581-5.884 41.881-14.035 60.042-28.9l10.825-8.859 17.328 29.997zm16-32a16 16 0 0 1 0 32zm24 95.209a39.75 39.75 0 0 1 -31.02-30.409 78.9 78.9 0 0 0 5.428-16.8h1.592a31.923 31.923 0 0 0 24-10.868zm0-100.341a32.2 32.2 0 0 0 -8-6.563v-20.305c0-2.868-.148-5.716-.42-8.542a39.671 39.671 0 0 1 8.42 24.542zm51.2 110.325a6.612 6.612 0 0 1 5.726-.9 7.112 7.112 0 0 1 4.518 4.2l30.671 75.507h-16.372l-27.216-69.794a7.621 7.621 0 0 1 2.673-9.013zm-11.2 31.184 18.57 47.623h-37.14zm-21.442-27.89a7.112 7.112 0 0 1 4.518-4.2 6.607 6.607 0 0 1 5.726.905 7.62 7.62 0 0 1 2.671 9.012l-27.216 69.796h-16.372zm125.442 107.513h-208a8 8 0 0 1 0-16h208a8 8 0 0 1 0 16z"/><path d="m96 376v-12.226l17.4-17.1a24.976 24.976 0 0 0 3.628-31.125 24.036 24.036 0 0 0 2.972-11.549v-96a24.027 24.027 0 0 0 -24-24h-56a24.027 24.027 0 0 0 -24 24v96a24.023 24.023 0 0 0 3.222 12.011 23.848 23.848 0 0 0 -3.222 11.989v48a23.943 23.943 0 0 0 8 17.869v94.131h16v-40h39v-1.145l9.178 42.822 15.644-3.354-19.264-89.881a24 24 0 0 0 11.442-20.442zm8.866-47.094a8.909 8.909 0 0 1 -2.679 6.355l-6.187 6.08v-13.341a23.738 23.738 0 0 0 8.527-1.571 9.01 9.01 0 0 1 .339 2.477zm-16.866-128.906h8a8.009 8.009 0 0 1 8 8v96a8.1 8.1 0 0 1 -8 8h-6.131a23.883 23.883 0 0 0 -1.869-1.869zm-56 8a8.009 8.009 0 0 1 8-8h24v104h-24a23.9 23.9 0 0 0 -7.877 1.334 8 8 0 0 1 -.123-1.334zm8 224v-32h28.958l6.858 32zm40-56a8.009 8.009 0 0 1 -8 8h-32a8.009 8.009 0 0 1 -8-8v-48a8.009 8.009 0 0 1 8-8h32a8.009 8.009 0 0 1 8 8z"/></g></svg>