<svg id="Capa_1" enable-background="new 0 0 512 512" height="512" viewBox="0 0 512 512" width="512" xmlns="http://www.w3.org/2000/svg"><g><g><g><path d="m298.854 171.256c-3.058-6.38-4.697-12.42-2.821-18.652.174-.579.269-1.726.269-1.726 2.458-6.75 7.097-12.43 12.315-15.206 12.199-6.492 18.129-4.675 33.916-1.475 9.988 2.025 20.347-1.152 26.011-3.423 2.075-.832 4.294.82 4.094 3.046-.035.389-.075.798-.12 1.224 0 0-.426 2.075-.597 3.241-2.013 13.706-9.809 36.32-35.176 46.758-18.002 7.407-30.822.96-37.891-13.787z" fill="#ccf49f"/><path d="m372.518 135.044c-1.33 12.59-7.378 40.896-34.938 52.236-18.01 7.41-33.59-.35-40.66-15.1-3.34-6.97-3.048-14.663-.618-21.303.14.35.308.693.468 1.033 7.62 15.89 24.41 24.25 43.81 16.27 17.37-7.15 26.808-20.506 31.938-33.136z" fill="#bce097"/></g><g><path d="m213.146 171.256c3.058-6.38 4.697-12.42 2.821-18.652-.174-.579-.269-1.726-.269-1.726-2.458-6.75-7.097-12.43-12.315-15.206-12.199-6.492-18.129-4.675-33.916-1.475-9.988 2.025-20.347-1.152-26.011-3.423-2.075-.832-4.294.82-4.094 3.046.035.389.075.798.12 1.224 0 0 .426 2.075.597 3.241 2.013 13.706 9.809 36.32 35.176 46.758 18.002 7.407 30.823.96 37.891-13.787z" fill="#ccf49f"/><path d="m139.483 135.044c1.33 12.59 7.378 40.896 34.938 52.236 18.01 7.41 33.59-.35 40.66-15.1 3.34-6.97 3.048-14.663.618-21.303-.14.35-.308.693-.468 1.033-7.62 15.89-24.41 24.25-43.81 16.27-17.371-7.15-26.808-20.506-31.938-33.136z" fill="#bce097"/></g><path d="m301 82.5c0-33.18-34.309-65.598-43.012-73.288-1.138-1.005-2.838-1.005-3.976 0-2.078 1.836-5.615 5.081-9.797 9.41 0 0-7.876 9.597-12.492 15.697-10.235 13.527-18.085 30.507-18.085 47.915 0 24.853 17.509 42.128 42.362 42.128 17.146 0 30.851-6.668 38.447-20.777 1.286-2.389 4.407-7.314 4.407-7.314 1.394-4.34 2.146-8.967 2.146-13.771z" fill="#ccf49f"/><path d="m298.854 96.271c-5.82 18.12-22.804 31.229-42.854 31.229-24.85 0-45-20.15-45-45 0-25.3 19.95-50.16 33.29-63.95-7.46 11.73-13.29 25.28-13.29 38.95 0 24.85 20.15 45 45 45 8.34 0 16.154-2.269 22.854-6.229z" fill="#bce097"/><path d="m343.287 243h-174.574c-4.224 0-8.418.257-12.564.761 0 0-6.596 1.67-10.043 2.452-23.698 5.375-41.503 18.317-57.064 38.234h331.448c-5.968-7.638-13.719-20.011-13.719-20.011-18.256-13.788-40.434-21.436-63.484-21.436z" fill="#a87c72"/><path d="m427.09 284.45h-342.18c17.83-22.82 43.459-37.319 71.239-40.689-.079.058-.156.125-.235.183-8.796 6.509-4.08 20.506 6.862 20.506l243.995-.014c7.145 5.375 13.649 11.731 19.409 18.914.295.367.62.729.91 1.1z" fill="#9a695e"/><path d="m51.473 286.386c-7.432 0-13.351 6.26-12.899 13.678 7.064 115.764 97.48 196.043 215.021 196.043 30.146 0 60.876.359 87.064-10.564 2.154-.898 6.82-.793 6.82-.793 72.561-33.012 124.146-104.085 129.249-187.717.453-7.418-5.467-13.678-12.898-13.678h-37.65l-75.733 9.007-72.187-9.007h-213.18z" fill="#5d98d8"/><path d="m166.787 482.575s-2.848 1.92-3.527 1.606c-71.864-33.271-122.913-104.023-127.99-187.151-.45-7.41 5.47-13.68 12.9-13.68l16.91.005c3.285 73.951 42.889 138.452 101.409 176.107 1.523.98 4.607 2.885 4.607 2.885z" fill="#478ac6"/><path d="m347.48 484.75c-2.218 1.01-4.456 1.984-6.713 2.921-13.225 4.414-26.464 5.596-40.023 8.436-14.709 3.082-29.117 3.062-44.745 3.062-33.12 0-92.74-14.99-92.74-14.99-6.63-5.75-5.57-17.76.24-22.68 13-11 26.28 6.75 53 1 20.88-4.5 22.65-16.79 39-16 17.83.86 18.99 15.66 37 17 20.08 1.5 29.25-16.09 45-10 1.55.6 10.19 4.15 13 13 2.801 8.821-1.019 16.251-3.019 18.251z" fill="#ccf49f"/><path d="m340.81 487.65c-26.12 10.86-54.76 16.85-84.81 16.85-33.12 0-64.54-7.28-92.74-20.32l-.01-.01c-6.62-5.75-5.56-17.75.25-22.67.99-.84 1.99-1.51 2.99-2.04 34.46 22.18 75.48 35.04 119.51 35.04 18.92 0 37.28-2.38 54.81-6.85z" fill="#bce097"/><g fill="#ccf49f"><path d="m181.813 367.271c-2.157-3.04-3.362-6.633-3.315-10.36.002-.137.003-.274.003-.411 0-19.001-16.06-34.252-35.346-32.919-16.438 1.136-29.682 14.574-30.601 31.025-.67 12 5.076 22.699 14.121 28.991 5.203 3.619 9.851 7.972 13.518 13.141 5.178 7.299 14.097 11.756 23.965 10.571 11.691-1.404 21.021-10.937 22.208-22.652.657-6.499-1.131-12.562-4.553-17.386z"/><path d="m429.5 312.5c-3.99 9.68-12.47 14.19-16 16-15.22 7.81-23.71-.37-37 5-16.01 6.47-12.05 21.72-27 32-18.67 12.84-52.9 8.34-72.23-12-2.78-2.92-20.42-21.5-15-45 2.96-12.85 11.75-21.595 15.99-25.145l147.92-.005.09.15c1.15 1.93 8.88 15.31 3.23 29z"/></g></g><g><path d="m478.713 282.288c-3.846-4.088-9.271-6.433-14.883-6.433h-33.304c-21.905-25.682-53.628-40.355-87.503-40.355h-79.523v-27.419c2.864-4.725 8.548-12.547 18.558-20.768 3.255-2.673 6.793-5.167 10.561-7.46 7.187 11.387 18.771 17.698 31.545 17.698 5.296 0 10.795-1.083 16.267-3.333 40.179-16.533 39.99-63.524 39.962-65.516-.036-2.621-1.438-5.032-3.697-6.361-2.26-1.329-5.049-1.381-7.355-.14-.131.071-13.523 7.035-25.315 4.645-14.019-3.002-24.852-5.574-38.931 2.204-11.439 6.088-19.777 21.532-17.829 36.545-5.286 3.041-10.228 6.432-14.725 10.125-3.2 2.628-6.227 5.414-9.038 8.294v-49.559c25.407-3.651 45-25.554 45-51.956 0-41.071-45.787-79.19-47.736-80.793-2.768-2.276-6.759-2.276-9.527 0-.686.563-16.942 14.025-30.298 33.324-2.357 3.406-1.507 8.078 1.899 10.435s8.077 1.506 10.435-1.899c7.951-11.487 17.235-20.877 22.725-26.013 11.051 10.352 37.499 37.943 37.499 64.947.091 20.054-16.876 37.666-37.597 37.498-20.633-.053-37.403-16.852-37.403-37.498 0-3.23.392-6.624 1.165-10.087.902-4.042-1.643-8.051-5.686-8.954-4.045-.905-8.051 1.643-8.954 5.686-1.012 4.534-1.525 9.027-1.525 13.355 0 26.402 19.593 48.304 45 51.956v48.512c-2.3-2.416-4.868-4.847-7.79-7.247-4.829-3.966-10.164-7.578-15.895-10.787 1.623-14.803-6.638-29.885-17.908-35.883-13.563-7.575-24.203-5.418-38.93-2.205-11.851 2.402-25.2-4.583-25.316-4.645-2.309-1.242-5.097-1.189-7.356.14s-3.661 3.74-3.697 6.361c-.027 1.992-.216 48.983 39.962 65.516 5.473 2.251 10.97 3.333 16.267 3.333 12.974 0 24.718-6.517 31.877-18.246 4.112 2.442 7.958 5.118 11.476 8.008 8.627 7.085 13.777 14.624 17.311 20.727v27.46h-79.522c-33.875 0-65.598 14.673-87.503 40.355h-33.306c-5.611 0-11.036 2.345-14.882 6.433-3.837 4.079-5.843 9.62-5.502 15.202 2.317 37.972 14.213 75.05 34.401 107.226 1.424 2.27 3.864 3.515 6.36 3.515 1.362 0 2.74-.371 3.979-1.148 3.508-2.202 4.568-6.831 2.367-10.339-18.858-30.056-29.971-64.693-32.135-100.167-.091-1.492.425-2.916 1.455-4.01 1.039-1.104 2.444-1.711 3.958-1.711h75.522c4.142 0 7.5-3.358 7.5-7.5s-3.358-7.5-7.5-7.5h-21.293c18.19-16.262 41.716-25.355 66.579-25.355h174.045c24.863 0 48.39 9.093 66.579 25.355h-250.911c-4.142 0-7.5 3.358-7.5 7.5s3.358 7.5 7.5 7.5h103.08c-2.904 4.462-5.382 9.762-6.812 15.959-5.713 24.759 9.895 44.509 16.871 51.852 8.471 8.916 19.681 15.462 32.418 18.933.66.18 1.323.266 1.977.266 3.299 0 6.322-2.194 7.231-5.53 1.089-3.997-1.269-8.119-5.265-9.208-10.092-2.75-18.905-7.864-25.486-14.792-5.306-5.584-17.206-20.48-13.13-38.148 2.041-8.846 7.254-15.218 11.849-19.331h140.172c1.847 4.309 3.918 11.636.969 18.785-3.021 7.324-9.902 10.858-12.492 12.188-6.376 3.275-10.924 2.934-16.684 2.503-5.626-.421-11.998-.897-19.7 2.215-11.198 4.524-15.187 12.77-18.391 19.395-2.517 5.201-4.689 9.693-10.049 13.378-2.104 1.446-4.532 2.654-7.217 3.589-3.912 1.362-5.979 5.637-4.617 9.549 1.078 3.096 3.979 5.036 7.083 5.036.817 0 1.65-.135 2.466-.419 3.949-1.375 7.577-3.19 10.783-5.395 8.635-5.938 12.194-13.295 15.054-19.208 2.814-5.818 4.674-9.662 10.507-12.019 4.458-1.8 8.212-1.521 12.962-1.164 6.473.485 14.522 1.086 24.654-4.118 3.558-1.827 14.382-7.386 19.508-19.812 3.733-9.049 2.928-17.798 1.045-24.505h26.352c1.514 0 2.92.608 3.958 1.711 1.029 1.094 1.546 2.518 1.454 4.01-4.595 75.31-48.174 139.682-110.341 173.961-.167-2.03-.566-4.142-1.253-6.306-3.687-11.613-14.283-16.504-17.443-17.726-11.37-4.398-20.168.105-27.933 4.074-6.035 3.085-11.729 5.997-19.214 5.442-6.556-.49-9.778-3.175-14.238-6.892-5.114-4.262-11.479-9.565-22.958-10.121-11.116-.537-17.531 3.928-23.188 7.868-4.566 3.18-9.288 6.468-17.753 8.291-11.212 2.415-19.449.079-27.417-2.18-8.972-2.542-19.143-5.426-28.848 2.786-3.891 3.292-6.466 8.351-7.224 13.865-21.062-11.823-40.201-27.247-56.445-45.856-2.724-3.119-7.46-3.441-10.583-.718-3.121 2.724-3.442 7.462-.718 10.583 43.076 49.415 106.159 78.377 172.314 78.353 120.632 0 220.875-94.224 228.215-214.51.341-5.582-1.664-11.123-5.502-15.202zm-166.573-139.996c9.406-5.462 16.721-3.271 28.903-.745 8.3 1.682 16.649.413 23.156-1.402-2.333 12.449-9.21 31.862-29.477 40.201-15.751 6.482-26.361-1.643-31.041-11.406-5.084-10.608 1.724-23.064 8.459-26.648zm-134.862 38.054c-20.444-8.412-27.267-27.782-29.54-40.219 6.515 1.823 14.893 3.107 23.22 1.419 11.758-2.591 20.43-4.528 28.902.745 6.735 3.583 13.543 16.04 8.459 26.648-4.68 9.764-15.292 17.888-31.041 11.407zm-9.184 297.719c-1.46-1.304-1.814-3.3-1.884-4.449-.174-2.862.942-5.38 2.135-6.39 3.254-2.754 5.93-2.396 15.068.194 8.357 2.369 19.8 5.613 34.666 2.412 11.409-2.457 17.929-6.998 23.167-10.646 5.079-3.537 7.872-5.484 13.891-5.195 6.461.313 9.658 2.976 14.081 6.662 5.068 4.223 11.376 9.479 22.724 10.326 11.687.875 20.262-3.517 27.159-7.044 7.152-3.656 10.808-5.33 15.693-3.44 1.13.437 6.848 2.888 8.558 8.274 1.549 4.878-.057 8.528-.844 9.902-26.511 11.782-55.799 18.329-86.508 18.329-30.665 0-60.581-6.596-87.906-18.935z"/><path d="m173.128 326.886c-8.296-7.742-19.121-11.574-30.492-10.787-20.284 1.402-36.437 17.777-37.572 38.089-.792 14.172 5.686 27.468 17.327 35.566 4.783 3.327 8.714 7.136 11.684 11.323 6.73 9.352 18.738 15.203 30.977 13.678 15.136-1.817 27.237-14.158 28.775-29.343.81-7.996-1.285-15.98-5.897-22.482-.807-1.148-1.916-3.527-1.93-6.431 0-11.184-4.692-21.978-12.872-29.613zm5.775 57.016c-.836 8.261-7.414 14.974-15.64 15.962-6.728.806-13.065-1.983-16.954-7.464-3.976-5.606-9.142-10.639-15.353-14.959-7.334-5.102-11.415-13.482-10.916-22.416.714-12.778 10.873-23.08 23.63-23.962 5.838-.442 13.532 1.57 19.223 6.79 5.228 4.879 8.106 11.501 8.106 18.647-.096 4.111 1.217 10.093 4.696 15.111 2.55 3.592 3.659 7.843 3.208 12.291z"/></g></g></svg>