<svg height="480pt" viewBox="0 0 480 480" width="480pt" xmlns="http://www.w3.org/2000/svg"><g fill="#99e1ff"><path d="m56 472h-48v-16c0-13.257812 10.742188-24 24-24s24 10.742188 24 24zm0 0"/><path d="m48 416c0 8.835938-7.164062 16-16 16s-16-7.164062-16-16 7.164062-16 16-16 16 7.164062 16 16zm0 0"/><path d="m472 472h-48v-16c0-13.257812 10.742188-24 24-24s24 10.742188 24 24zm0 0"/><path d="m464 416c0 8.835938-7.164062 16-16 16s-16-7.164062-16-16 7.164062-16 16-16 16 7.164062 16 16zm0 0"/><path d="m56 80h-48v-16c0-13.257812 10.742188-24 24-24s24 10.742188 24 24zm0 0"/><path d="m48 24c0 8.835938-7.164062 16-16 16s-16-7.164062-16-16 7.164062-16 16-16 16 7.164062 16 16zm0 0"/><path d="m472 80h-48v-16c0-13.257812 10.742188-24 24-24s24 10.742188 24 24zm0 0"/><path d="m464 24c0 8.835938-7.164062 16-16 16s-16-7.164062-16-16 7.164062-16 16-16 16 7.164062 16 16zm0 0"/></g><path d="m318.320312 272c-5.039062-18.480469-22-32-42-32h-72.640624c-24.078126 0-43.679688 19.601562-43.679688 43.679688v36.320312h160zm0 0" fill="#ccc"/><path d="m288 176c0-26.511719-21.488281-48-48-48s-48 21.488281-48 48c0 17.761719 9.664062 33.222656 24 41.527344v22.472656l24 32 24-32v-22.472656c14.335938-8.304688 24-23.765625 24-41.527344zm0 0" fill="#ffcd94"/><path d="m240 128c-23.222656 0-42.59375 16.488281-47.039062 38.398438 5.222656 2.335937 10.976562 3.601562 17.039062 3.601562 11.761719 0 22.441406-4.855469 30-12.664062 7.558594 7.800781 18.238281 12.664062 30 12.664062 6.054688 0 11.816406-1.257812 17.039062-3.601562-4.445312-21.910157-23.816406-38.398438-47.039062-38.398438zm0 0" fill="#26547c"/><path d="m276.320312 232h-4.320312v-10.113281c14.488281-10.132813 24-26.910157 24-45.886719 0-30.871094-25.121094-56-56-56s-56 25.128906-56 56c0 18.976562 9.511719 35.761719 24 45.886719v10.113281h-4.320312c-28.496094 0-51.679688 23.175781-51.679688 51.679688v36.320312c0 4.425781 3.585938 8 8 8h160c4.414062 0 8-3.574219 8-8v-36.320312c0-28.503907-23.183594-51.679688-51.679688-51.679688zm-36.320312-96c16.792969 0 31.144531 10.433594 37.0625 25.128906-11.015625 2.199219-23.335938-1.128906-31.320312-9.359375-3.007813-3.113281-8.476563-3.113281-11.484376 0-7.984374 8.230469-20.3125 11.558594-31.320312 9.359375 5.917969-14.695312 20.269531-25.128906 37.0625-25.128906zm-39.910156 40.863281c13.710937 2.640625 28.644531-.4375 39.910156-8.886719 8.566406 6.429688 19.160156 10.023438 30 10.023438 3.375 0 6.671875-.351562 9.894531-.992188-.542969 21.578126-18.183593 38.992188-39.894531 38.992188-21.761719 0-39.441406-17.488281-39.910156-39.136719zm39.910156 55.136719c5.558594 0 10.929688-.839844 16-2.359375v7.695313l-16 21.328124-16-21.328124v-7.695313c5.070312 1.519531 10.441406 2.359375 16 2.359375zm72 80h-144v-28.320312c0-19.671876 16-35.679688 35.679688-35.679688h8.320312l21.601562 28.800781c3.015626 4.03125 9.78125 4.03125 12.796876 0l21.601562-28.800781h8.320312c19.679688 0 35.679688 16.007812 35.679688 35.679688zm0 0"/><path d="m8 480h48c4.414062 0 8-3.574219 8-8v-16c0-10.488281-5.136719-19.71875-12.953125-25.558594 3.066406-4.035156 4.953125-9 4.953125-14.441406 0-13.230469-10.769531-24-24-24s-24 10.769531-24 24c0 5.441406 1.886719 10.40625 4.953125 14.441406-7.816406 5.839844-12.953125 15.070313-12.953125 25.558594v16c0 4.425781 3.585938 8 8 8zm40-16h-32v-8c0-8.824219 7.175781-16 16-16s16 7.175781 16 16zm-24-48c0-4.414062 3.59375-8 8-8s8 3.585938 8 8-3.59375 8-8 8-8-3.585938-8-8zm0 0"/><path d="m467.046875 430.441406c3.066406-4.035156 4.953125-9 4.953125-14.441406 0-13.230469-10.769531-24-24-24s-24 10.769531-24 24c0 5.441406 1.886719 10.40625 4.953125 14.441406-7.816406 5.839844-12.953125 15.070313-12.953125 25.558594v16c0 4.425781 3.585938 8 8 8h48c4.414062 0 8-3.574219 8-8v-16c0-10.488281-5.136719-19.71875-12.953125-25.558594zm-27.046875-14.441406c0-4.414062 3.59375-8 8-8s8 3.585938 8 8-3.59375 8-8 8-8-3.585938-8-8zm24 48h-32v-8c0-8.824219 7.175781-16 16-16s16 7.175781 16 16zm0 0"/><path d="m8 88h48c4.414062 0 8-3.574219 8-8v-16c0-10.488281-5.136719-19.71875-12.953125-25.558594 3.066406-4.035156 4.953125-9 4.953125-14.441406 0-13.230469-10.769531-24-24-24s-24 10.769531-24 24c0 5.441406 1.886719 10.40625 4.953125 14.441406-7.816406 5.839844-12.953125 15.070313-12.953125 25.558594v16c0 4.425781 3.585938 8 8 8zm40-16h-32v-8c0-8.824219 7.175781-16 16-16s16 7.175781 16 16zm-24-48c0-4.414062 3.59375-8 8-8s8 3.585938 8 8-3.59375 8-8 8-8-3.585938-8-8zm0 0"/><path d="m467.046875 38.441406c3.066406-4.035156 4.953125-9 4.953125-14.441406 0-13.230469-10.769531-24-24-24s-24 10.769531-24 24c0 5.441406 1.886719 10.40625 4.953125 14.441406-7.816406 5.839844-12.953125 15.070313-12.953125 25.558594v16c0 4.425781 3.585938 8 8 8h48c4.414062 0 8-3.574219 8-8v-16c0-10.488281-5.136719-19.71875-12.953125-25.558594zm-27.046875-14.441406c0-4.414062 3.59375-8 8-8s8 3.585938 8 8-3.59375 8-8 8-8-3.585938-8-8zm24 48h-32v-8c0-8.824219 7.175781-16 16-16s16 7.175781 16 16zm0 0"/><path d="m240 88c-83.816406 0-152 68.183594-152 152s68.183594 152 152 152 152-68.183594 152-152-68.183594-152-152-152zm0 288c-74.992188 0-136-61.007812-136-136s61.007812-136 136-136 136 61.007812 136 136-61.007812 136-136 136zm0 0"/><path d="m440 240c0-110.28125-89.71875-200-200-200s-200 89.71875-200 200 89.71875 200 200 200 200-89.71875 200-200zm-200 184c-101.457031 0-184-82.535156-184-184s82.542969-184 184-184 184 82.535156 184 184-82.542969 184-184 184zm0 0"/><path d="m43.785156 348.136719c-18.175781-32.914063-27.785156-70.304688-27.785156-108.136719 0-34.878906 7.792969-68.304688 23.167969-99.320312l-14.335938-7.113282c-16.480469 33.257813-24.832031 69.058594-24.832031 106.433594 0 40.535156 10.296875 80.601562 29.777344 115.863281zm0 0"/><path d="m374.769531 438.617188-9-13.234376c-37.152343 25.265626-80.640625 38.617188-125.769531 38.617188-53.558594 0-105.390625-19.199219-145.945312-54.0625l-10.429688 12.125c43.453125 37.363281 98.992188 57.9375 156.375 57.9375 48.34375 0 94.953125-14.3125 134.769531-41.382812zm0 0"/><path d="m440.832031 140.679688c15.375 31.015624 23.167969 64.441406 23.167969 99.320312 0 35.304688-7.976562 69.089844-23.703125 100.40625l14.296875 7.1875c16.855469-33.570312 25.40625-69.769531 25.40625-107.59375 0-37.375-8.351562-73.175781-24.832031-106.433594zm0 0"/><path d="m100.96875 64.359375c39.910156-31.640625 87.992188-48.359375 139.03125-48.359375 49.855469 0 97.039062 16.023438 136.449219 46.34375l9.757812-12.6875c-42.230469-32.488281-92.792969-49.65625-146.207031-49.65625-54.6875 0-106.199219 17.910156-148.976562 51.816406zm0 0"/></svg>