<svg id="Capa_1" enable-background="new 0 0 511.744 511.744" height="512" viewBox="0 0 511.744 511.744" width="512" xmlns="http://www.w3.org/2000/svg"><g><path d="m95.775 429.91c-87.729-87.729-87.729-230.464 0-318.193 87.715-87.715 232.479-87.715 320.193 0 87.729 87.729 87.729 230.464 0 318.193l21.211 21.211c99.419-99.419 99.419-261.196 0-360.615-99.434-99.434-263.182-99.434-362.615 0-99.419 99.419-99.419 261.196 0 360.615z"/><path d="m138.197 154.138c64.336-64.336 171.014-64.336 235.35 0s64.336 169.014 0 233.35l21.211 21.211c76.025-76.025 76.025-199.746 0-275.771s-201.746-76.025-277.771 0-76.025 199.746 0 275.771l21.211-21.211c-64.337-64.336-64.337-169.014-.001-233.35z"/><path d="m180.619 345.066c-40.942-40.942-40.942-107.563 0-148.506 40.957-40.928 109.549-40.928 150.506 0 40.942 40.942 40.942 107.563 0 148.506l21.211 21.211c52.646-52.632 52.646-138.296 0-190.928-52.646-52.646-140.281-52.646-192.928 0-52.646 52.632-52.646 138.296 0 190.928z"/><ellipse cx="255.872" cy="270.813" rx="76" ry="75"/><path d="m361.872 450.813c0-57.891-48.109-105-106-105s-106 47.109-106 105v45h212z"/></g></svg>