<?xml version="1.0" encoding="UTF-8" standalone="no"?>
<!-- Created with Inkscape (http://www.inkscape.org/) -->

<svg
   version="1.1"
   id="svg789"
   xml:space="preserve"
   width="682.66669"
   height="682.66669"
   viewBox="0 0 682.66669 682.66669"
   xmlns="http://www.w3.org/2000/svg"
   xmlns:svg="http://www.w3.org/2000/svg"><defs
     id="defs793"><clipPath
       clipPathUnits="userSpaceOnUse"
       id="clipPath803"><path
         d="M 0,512 H 512 V 0 H 0 Z"
         id="path801" /></clipPath></defs><g
     id="g795"
     transform="matrix(1.3333333,0,0,-1.3333333,0,682.66667)"><g
       id="g797"><g
         id="g799"
         clip-path="url(#clipPath803)"><g
           id="g805"
           transform="translate(283.9385,382.3047)"><path
             d="m 0,0 13.842,44.586 -48.075,14.925 c -12.312,3.822 -25.392,-3.06 -29.214,-15.372 -3.823,-12.312 3.06,-25.392 15.372,-29.214 z"
             style="fill:#873f30;fill-opacity:1;fill-rule:nonzero;stroke:none"
             id="path807" /></g><g
           id="g809"
           transform="translate(283.9385,382.3047)"><path
             d="m 0,0 13.842,44.586 -48.075,14.925 c -12.312,3.822 -25.392,-3.06 -29.214,-15.372 -3.823,-12.312 3.06,-25.392 15.372,-29.214 z"
             style="fill:none;stroke:#000000;stroke-width:15;stroke-linecap:round;stroke-linejoin:round;stroke-miterlimit:10;stroke-dasharray:none;stroke-opacity:1"
             id="path811" /></g><g
           id="g813"
           transform="translate(350.3467,320.5337)"><path
             d="m 0,0 -19.942,-19.942 -83.898,-83.898 c 2.62,-0.548 5.282,-0.91 7.973,-1.042 20.306,-0.992 39.517,-9.504 53.893,-23.88 l 110.759,-110.759 85.368,85.368 z"
             style="fill:#ba5d4f;fill-opacity:1;fill-rule:nonzero;stroke:none"
             id="path815" /></g><g
           id="g817"
           transform="translate(398.5547,272.3306)"><path
             d="m 0,0 -51.333,-51.323 c -3.21,-3.21 -6.832,-5.976 -10.766,-8.23 l -16.007,-9.146 c -3.492,-2.002 -7.205,-3.572 -11.038,-4.698 -2.375,-0.695 -4.809,-1.208 -7.264,-1.55 -13.472,10.967 -30.164,17.416 -47.67,18.271 -2.687,0.131 -5.354,0.493 -7.969,1.037 27.96,27.97 55.931,55.931 83.901,83.901 l 19.942,19.942 z"
             style="fill:#a34f41;fill-opacity:1;fill-rule:nonzero;stroke:none"
             id="path819" /></g><g
           id="g821"
           transform="translate(504.5,166.3848)"><path
             d="m 0,0 -19.63,-19.64 -154.149,154.15 19.63,19.639 z"
             style="fill:#a34f41;fill-opacity:1;fill-rule:nonzero;stroke:none"
             id="path823" /></g><g
           id="g825"
           transform="translate(504.5,166.3809)"><path
             d="M 0,0 -58.059,58.059"
             style="fill:none;stroke:#000000;stroke-width:15;stroke-linecap:round;stroke-linejoin:round;stroke-miterlimit:10;stroke-dasharray:none;stroke-opacity:1"
             id="path827" /></g><g
           id="g829"
           transform="translate(422.8779,248.0029)"><path
             d="m 0,0 -72.531,72.531 -19.943,-19.943 -83.897,-83.897 c 2.62,-0.548 5.282,-0.91 7.973,-1.042 20.305,-0.992 39.517,-9.504 53.893,-23.88 L -3.746,-166.99"
             style="fill:none;stroke:#000000;stroke-width:15;stroke-linecap:round;stroke-linejoin:round;stroke-miterlimit:10;stroke-dasharray:none;stroke-opacity:1"
             id="path831" /></g><g
           id="g833"
           transform="translate(384.8867,319.4932)"><path
             d="m 0,0 -4.874,4.874 c -6.467,6.466 -16.952,6.466 -23.419,0 l 13.776,13.775 c 6.467,6.467 6.467,16.952 0,23.419 l -4.873,4.873 c -6.467,6.467 -16.952,6.468 -23.419,0 l 5.51,5.511 c 6.467,6.467 6.467,16.952 0,23.419 l -4.873,4.873 c -6.467,6.467 -16.952,6.467 -23.419,0 l 4.133,4.132 c 6.467,6.468 6.467,16.953 0,23.419 l -4.873,4.874 c -6.467,6.467 -16.952,6.467 -23.419,0 l -234.943,-234.943 85.368,-85.368 82.469,82.468 c 14.376,14.376 33.586,22.889 53.893,23.881 8.045,0.393 15.883,2.681 22.875,6.679 l 15.999,9.148 c 3.94,2.253 7.562,5.02 10.77,8.229 L 0,-23.419 C 6.467,-16.952 6.467,-6.467 0,0"
             style="fill:#ffcec0;fill-opacity:1;fill-rule:nonzero;stroke:none"
             id="path835" /></g><g
           id="g837"
           transform="translate(301.8584,368.1187)"><path
             d="m 0,0 -21.396,21.397 c -9.397,-9.465 -103.579,-103.898 -113.018,-113.32 l 21.147,-21.148 c 7.723,-7.722 20.243,-7.74 27.982,-0.034 0.095,0.093 0.189,0.188 0.284,0.282 7.764,7.729 7.774,20.295 0.029,28.042 l 0.052,-0.052 c 7.726,-7.726 20.251,-7.737 27.99,-0.024 0.094,0.094 0.189,0.188 0.284,0.282 7.754,7.73 7.761,20.29 0.019,28.033 l 0.029,-0.029 c 7.732,-7.732 20.268,-7.738 28.003,-0.011 0.095,0.095 0.189,0.189 0.283,0.283 7.743,7.734 7.745,20.282 0.007,28.02 l 0.013,-0.013 c 7.732,-7.733 20.271,-7.736 28.006,-0.006 0.094,0.094 0.188,0.189 0.283,0.283 C 7.736,-20.282 7.736,-7.737 0,0"
             style="fill:#fdb0a0;fill-opacity:1;fill-rule:nonzero;stroke:none"
             id="path839" /></g><g
           id="g841"
           transform="translate(384.8906,296.0742)"><path
             d="m 0,0 -53.325,-53.315 c -3.21,-3.209 -6.832,-5.977 -10.766,-8.23 l -15.998,-9.146 c -3.491,-2.002 -7.203,-3.572 -11.047,-4.699 -3.834,-1.116 -7.807,-1.79 -11.832,-1.982 -20.303,-0.996 -39.521,-9.507 -53.888,-23.885 l -82.473,-82.463 -18.604,18.594 82.473,82.472 c 14.378,14.378 33.585,22.89 53.898,23.876 4.015,0.191 7.99,0.865 11.823,1.992 3.843,1.117 7.546,2.686 11.047,4.688 l 15.998,9.146 c 3.944,2.254 7.565,5.021 10.775,8.23 l 53.315,53.326 c 3.904,3.903 5.454,9.266 4.638,14.327 3.331,-0.523 6.52,-2.073 9.086,-4.639 L 0,23.423 C 6.459,16.953 6.459,6.469 0,0"
             style="fill:#fdb0a0;fill-opacity:1;fill-rule:nonzero;stroke:none"
             id="path843" /></g><g
           id="g845"
           transform="translate(352.9824,264.1709)"><path
             d="m 0,0 31.904,31.903 c 6.467,6.468 6.467,16.952 0,23.419 l -4.873,4.874 c -6.468,6.467 -16.953,6.467 -23.42,0 l 13.777,13.776 c 6.466,6.466 6.466,16.951 0,23.419 l -4.874,4.873 c -6.467,6.467 -16.951,6.467 -23.418,0 l 5.509,5.51 c 6.467,6.467 6.467,16.952 0,23.419 l -4.873,4.873 c -6.466,6.467 -16.952,6.467 -23.419,0 l 4.133,4.133 c 6.467,6.467 6.467,16.952 0,23.419 l -4.873,4.873 c -6.468,6.467 -16.952,6.467 -23.419,0 l -234.943,-234.943 85.368,-85.368 82.469,82.468 c 14.376,14.376 33.587,22.889 53.893,23.881 8.045,0.393 15.883,2.681 22.875,6.679 l 15.999,9.148 c 3.059,1.749 5.919,3.816 8.55,6.152"
             style="fill:none;stroke:#000000;stroke-width:15;stroke-linecap:round;stroke-linejoin:round;stroke-miterlimit:10;stroke-dasharray:none;stroke-opacity:1"
             id="path847" /></g><g
           id="g849"
           transform="translate(286.3066,355.0864)"><path
             d="m 0,0 c 0.095,0.094 0.188,0.188 0.283,0.283 7.739,7.733 7.739,20.278 0.003,28.015 l -26.295,26.295 c -6.468,6.467 -16.952,6.467 -23.419,0 l -4.873,-4.873 c -6.468,-6.467 -6.468,-16.952 0,-23.419 L -28.006,0.005 C -20.273,-7.727 -7.735,-7.73 0,0"
             style="fill:#c86f5c;fill-opacity:1;fill-rule:nonzero;stroke:none"
             id="path851" /></g><g
           id="g853"
           transform="translate(257.998,326.8027)"><path
             d="M 0,0 C 0.095,0.094 0.188,0.188 0.283,0.283 8.025,8.017 8.027,20.564 0.29,28.302 l -29.229,29.23 c -6.467,6.467 -16.953,6.467 -23.419,0 l -4.873,-4.873 C -63.699,46.192 -63.699,35.707 -57.232,29.24 L -28.003,0.01 C -20.271,-7.721 -7.735,-7.727 0,0"
             style="fill:#ba5d4f;fill-opacity:1;fill-rule:nonzero;stroke:none"
             id="path855" /></g><g
           id="g857"
           transform="translate(229.6631,298.5273)"><path
             d="m 0,0 c 0.094,0.094 0.188,0.188 0.283,0.282 7.756,7.731 7.762,20.291 0.019,28.034 l -25.77,25.769 c -6.467,6.468 -16.951,6.467 -23.418,0 l -4.874,-4.873 c -6.467,-6.467 -6.467,-16.952 0,-23.419 L -27.99,0.024 C -20.265,-7.702 -7.739,-7.713 0,0"
             style="fill:#a34f41;fill-opacity:1;fill-rule:nonzero;stroke:none"
             id="path859" /></g><g
           id="g861"
           transform="translate(201.3076,270.2783)"><path
             d="M 0,0 0.284,0.283 C 8.048,8.012 8.059,20.58 0.312,28.327 l -21.208,21.208 c -6.467,6.467 -16.953,6.467 -23.419,0 l -4.873,-4.873 c -6.467,-6.468 -6.467,-16.953 0,-23.419 L -27.98,0.035 C -20.259,-7.687 -7.739,-7.705 0,0"
             style="fill:#873f30;fill-opacity:1;fill-rule:nonzero;stroke:none"
             id="path863" /></g><g
           id="g865"
           transform="translate(286.3066,355.0864)"><path
             d="m 0,0 c 0.095,0.094 0.188,0.188 0.283,0.283 7.739,7.733 7.739,20.278 0.003,28.015 l -26.295,26.295 c -6.468,6.467 -16.952,6.467 -23.419,0 l -4.873,-4.873 c -6.468,-6.467 -6.468,-16.952 0,-23.419 L -28.006,0.005 C -20.273,-7.727 -7.735,-7.73 0,0 Z"
             style="fill:none;stroke:#000000;stroke-width:15;stroke-linecap:round;stroke-linejoin:round;stroke-miterlimit:10;stroke-dasharray:none;stroke-opacity:1"
             id="path867" /></g><g
           id="g869"
           transform="translate(257.998,326.8027)"><path
             d="M 0,0 C 0.095,0.094 0.188,0.188 0.283,0.283 8.025,8.017 8.027,20.564 0.29,28.302 l -29.229,29.23 c -6.467,6.467 -16.953,6.467 -23.419,0 l -4.873,-4.873 C -63.699,46.192 -63.699,35.707 -57.232,29.24 L -28.003,0.01 C -20.271,-7.721 -7.735,-7.727 0,0 Z"
             style="fill:none;stroke:#000000;stroke-width:15;stroke-linecap:round;stroke-linejoin:round;stroke-miterlimit:10;stroke-dasharray:none;stroke-opacity:1"
             id="path871" /></g><g
           id="g873"
           transform="translate(229.6631,298.5273)"><path
             d="m 0,0 c 0.094,0.094 0.188,0.188 0.283,0.282 7.756,7.731 7.762,20.291 0.019,28.034 l -25.77,25.769 c -6.467,6.468 -16.951,6.467 -23.418,0 l -4.874,-4.873 c -6.467,-6.467 -6.467,-16.952 0,-23.419 L -27.99,0.024 C -20.265,-7.702 -7.739,-7.713 0,0 Z"
             style="fill:none;stroke:#000000;stroke-width:15;stroke-linecap:round;stroke-linejoin:round;stroke-miterlimit:10;stroke-dasharray:none;stroke-opacity:1"
             id="path875" /></g><g
           id="g877"
           transform="translate(201.3076,270.2783)"><path
             d="M 0,0 0.284,0.283 C 8.048,8.012 8.059,20.58 0.312,28.327 l -21.208,21.208 c -6.467,6.467 -16.953,6.467 -23.419,0 l -4.873,-4.873 c -6.467,-6.468 -6.467,-16.953 0,-23.419 L -27.98,0.035 C -20.259,-7.687 -7.739,-7.705 0,0 Z"
             style="fill:none;stroke:#000000;stroke-width:15;stroke-linecap:round;stroke-linejoin:round;stroke-miterlimit:10;stroke-dasharray:none;stroke-opacity:1"
             id="path879" /></g><g
           id="g881"
           transform="translate(180.0654,120.0493)"><path
             d="m 0,0 4.528,4.529 c 2.866,2.864 2.866,7.509 0,10.373 l -111.27,111.271 c -2.864,2.865 -7.509,2.865 -10.374,0 l -4.529,-4.528 c -1.523,-1.523 -2.299,-3.639 -2.124,-5.786 l 0.556,-6.79 c 0.176,-2.147 -0.6,-4.262 -2.124,-5.785 l -22.19,-22.191 c -1.524,-1.523 -3.639,-2.3 -5.785,-2.124 l -6.791,0.556 c -2.147,0.176 -4.262,-0.601 -5.786,-2.124 l -4.528,-4.529 c -2.864,-2.865 -2.864,-7.509 0,-10.374 l 111.271,-111.27 c 2.865,-2.865 7.509,-2.865 10.374,0 l 4.528,4.528 c 1.523,1.523 2.3,3.639 2.124,5.786 l -0.556,6.79 c -0.176,2.147 0.602,4.262 2.124,5.785 l 22.191,22.191 c 1.523,1.523 3.638,2.299 5.786,2.124 l 6.79,-0.556 C -3.639,-2.3 -1.523,-1.523 0,0"
             style="fill:#64b9fc;fill-opacity:1;fill-rule:nonzero;stroke:none"
             id="path883" /></g><g
           id="g885"
           transform="translate(184.5986,124.5801)"><path
             d="m 0,0 -4.529,-4.529 c -1.53,-1.53 -3.644,-2.299 -5.786,-2.124 l -6.789,0.555 c -2.154,0.176 -4.267,-0.604 -5.787,-2.123 l -22.19,-22.19 c -1.529,-1.529 -2.299,-3.643 -2.123,-5.786 l 0.555,-6.79 c 0.175,-2.153 -0.604,-4.266 -2.123,-5.786 l -4.531,-4.53 c -2.863,-2.864 -7.51,-2.864 -10.374,0 l -19.959,19.96 c 2.864,-2.766 7.443,-2.728 10.267,0.097 l 4.529,4.53 c 1.53,1.529 2.3,3.643 2.124,5.786 l -0.555,6.789 c -0.175,2.153 0.604,4.267 2.124,5.787 l 22.19,22.189 c 1.529,1.53 3.643,2.299 5.786,2.124 l 6.789,-0.555 c 2.153,-0.175 4.267,0.604 5.786,2.123 l 4.53,4.53 c 2.864,2.864 2.864,7.51 0,10.374 L 0,10.375 C 2.864,7.51 2.864,2.864 0,0"
             style="fill:#31a7fb;fill-opacity:1;fill-rule:nonzero;stroke:none"
             id="path887" /></g><g
           id="g889"
           transform="translate(120.9189,71.2769)"><path
             d="m 0,0 c 2.865,-2.865 7.51,-2.865 10.374,0 l 4.529,4.529 c 1.523,1.523 2.299,3.638 2.123,5.785 l -0.555,6.79 c -0.176,2.147 0.6,4.263 2.124,5.786 l 22.19,22.191 c 1.524,1.523 3.639,2.299 5.786,2.124 l 6.79,-0.557 c 2.147,-0.175 4.263,0.602 5.785,2.124 l 4.529,4.529 c 2.865,2.865 2.865,7.51 0,10.374 l -53.286,53.286"
             style="fill:none;stroke:#000000;stroke-width:15;stroke-linecap:round;stroke-linejoin:round;stroke-miterlimit:10;stroke-dasharray:none;stroke-opacity:1"
             id="path891" /></g><g
           id="g893"
           transform="translate(107.7441,211.8018)"><path
             d="m 0,0 -34.421,34.421 c -2.864,2.865 -7.509,2.865 -10.374,0 l -4.528,-4.529 c -1.524,-1.523 -2.3,-3.639 -2.124,-5.785 l 0.555,-6.79 c 0.176,-2.147 -0.6,-4.263 -2.124,-5.786 l -22.19,-22.19 c -1.523,-1.524 -3.639,-2.3 -5.785,-2.124 l -6.79,0.555 c -2.148,0.176 -4.263,-0.601 -5.786,-2.124 l -4.529,-4.528 c -2.864,-2.865 -2.864,-7.51 0,-10.374"
             style="fill:none;stroke:#000000;stroke-width:15;stroke-linecap:round;stroke-linejoin:round;stroke-miterlimit:10;stroke-dasharray:none;stroke-opacity:1"
             id="path895" /></g><g
           id="g897"
           transform="translate(54.7285,223.333)"><path
             d="M 0,0 39.227,-39.227"
             style="fill:none;stroke:#000000;stroke-width:15;stroke-linecap:round;stroke-linejoin:round;stroke-miterlimit:10;stroke-dasharray:none;stroke-opacity:1"
             id="path899" /></g><g
           id="g901"
           transform="translate(128.1348,114.7378)"><path
             d="m 0,0 c -5.212,-5.211 -13.661,-5.211 -18.872,0 -5.212,5.211 -5.212,13.66 0,18.872 5.211,5.211 13.66,5.211 18.872,0 C 5.211,13.66 5.211,5.211 0,0"
             style="fill:#eef4f5;fill-opacity:1;fill-rule:nonzero;stroke:none"
             id="path903" /></g><g
           id="g905"
           transform="translate(128.1348,114.7378)"><path
             d="m 0,0 c -5.212,-5.211 -13.661,-5.211 -18.872,0 -5.212,5.211 -5.212,13.66 0,18.872 5.211,5.211 13.66,5.211 18.872,0 C 5.211,13.66 5.211,5.211 0,0 Z"
             style="fill:none;stroke:#000000;stroke-width:15;stroke-linecap:round;stroke-linejoin:round;stroke-miterlimit:10;stroke-dasharray:none;stroke-opacity:1"
             id="path907" /></g></g></g></g></svg>
