<svg clip-rule="evenodd" fill-rule="evenodd" height="512" image-rendering="optimizeQuality" shape-rendering="geometricPrecision" text-rendering="geometricPrecision" viewBox="0 0 512 512" width="512" xmlns="http://www.w3.org/2000/svg"><g id="Layer_x0020_1"><path d="m256 381-7-2-34 127c-1 3-3 5-6 5 1 1-4 1-7-3l-33-51-54 28c-6 2-13-2-11-9l37-136-65-89c-1-1-1-3-1-4v-113c0-2 0-3 1-5l66-91c1-1 2-2 4-3l54-17 54-18h4l108 35c2 1 3 2 4 3l66 91c1 2 1 3 1 5v113c0 1 0 3-1 4l-65 89 37 137c2 6-5 11-10 8l-55-27-33 51c-2 4-10 4-12-3l-35-128zm103-34-82 27 30 113 28-43c2-3 6-4 10-2l45 23zm-124 27-82-26-31 116 46-23c3-2 7 0 9 3l28 42zm10-12 11 4 103-34 64-87v-109l-64-87-103-34-51 17-52 17-63 87v109l63 87zm-36-92c-5 0-8-4-7-9l17-51-43-31c-6-4-3-13 4-13h53l16-50c2-7 12-7 14 0l16 50h54c7 0 9 9 4 13l-43 32 17 50c2 7-5 12-11 8l-43-31-43 31c-2 1-3 1-5 1zm47-49c2 0 3 0 4 1l29 21-11-34c-1-3 0-6 3-8l29-21h-36c-3 0-6-2-7-5l-11-34-12 34c0 3-3 5-7 5h-36l29 21c3 2 4 5 3 8l-11 34 29-21c2-1 3-1 5-1zm0 105c-75 0-136-60-136-135s62-136 136-136c75 0 136 60 136 135s-61 136-136 136zm0-257c-67 0-121 55-121 121 0 67 54 121 121 121s121-54 121-121c0-66-54-121-121-121z" fill="#4d4d4d"/><path d="m256 311c67 0 121-54 121-121 0-66-54-121-121-121s-121 55-121 121c0 67 54 121 121 121zm38-100 17 50c2 7-5 12-11 8l-43-31-43 31c-2 1-3 1-5 1-5 0-8-4-7-9l17-51-43-31c-6-4-3-13 4-13h53l16-50c2-7 12-7 14 0l16 50h54c7 0 9 9 4 13z" fill="#f1f1f1"/><path d="m256 55c75 0 136 60 136 135s-61 136-136 136-136-60-136-135 62-136 136-136zm0 311 103-34 64-87v-109l-64-87-103-34-51 17-52 17-63 87v109l63 87 92 30z" fill="#ffe600"/><path d="m267 175-11-34-12 34c0 3-3 5-7 5h-36l29 21c3 2 4 5 3 8l-11 34 29-21c2-1 3-1 5-1s3 0 4 1l29 21-11-34c-1-3 0-6 3-8l29-21h-36c-3 0-6-2-7-5z" fill="#ffe600"/><g fill="#ff700d"><path d="m359 347-82 27 30 113 28-43c2-3 6-4 10-2l45 23z"/><path d="m205 486 30-112-82-26-31 116 46-23c3-2 7 0 9 3z"/></g></g></svg>