<svg height="512pt" viewBox="-82 0 512 512.00125" width="512pt" xmlns="http://www.w3.org/2000/svg"><path d="m135.878906 120.003906c-1.917968-7.507812-3.066406-15.40625-3.066406-23.566406 0-37.355469 24.097656-69.335938 35.636719-82.507812 3.195312-3.640626 8.851562-3.640626 12.042969 0 11.539062 13.171874 35.636718 45.152343 35.636718 82.507812 0 49.121094-41.65625 88.9375-41.65625 88.9375s-9.722656-10.65625-21.039062-26.371094c-12.964844-18-17.554688-39-17.554688-39zm0 0" fill="#09a66d"/><path d="m180.492188 13.929688c-3.191407-3.644532-8.847657-3.644532-12.042969 0-2.894531 3.304687-6.582031 7.796874-10.476563 13.257812 11.636719 16.300781 25.15625 41.265625 25.15625 69.25 0 27.828125-13.371094 52.667969-24.960937 68.976562 9.164062 12.132813 16.304687 19.960938 16.304687 19.960938s41.65625-39.820312 41.65625-88.9375c0-37.355469-24.097656-69.335938-35.636718-82.507812zm0 0" fill="#028f5d"/><path d="m317.46875 127.382812c5.308594-.785156 9.964844-1.226562 13.640625-1.46875 4.832031-.316406 8.828125 3.683594 8.507813 8.515626-1.152344 17.472656-6.726563 57.125-33.144532 83.539062-34.734375 34.734375-92.347656 33.433594-92.347656 33.433594s-1.300781-57.609375 33.433594-92.34375c7.789062-7.789063 16.636718-13.949219 25.910156-18.347656 21.5-10.207032 44-13.328126 44-13.328126zm0 0" fill="#09a66d"/><path d="m331.109375 125.914062c-3.675781.246094-8.332031.683594-13.640625 1.46875 0 0-9.464844 1.3125-21.980469 5.019532.121094.652344.175781 1.328125.128907 2.027344-1.152344 17.472656-6.726563 57.125-33.144532 83.539062-14.089844 14.089844-31.949218 22.25-48.195312 26.972656-.207032 4.082032-.152344 6.460938-.152344 6.460938s57.613281 1.300781 92.347656-33.433594c26.417969-26.414062 31.992188-66.066406 33.144532-83.539062.320312-4.832032-3.675782-8.832032-8.507813-8.515626zm0 0" fill="#028f5d"/><path d="m103.292969 230.316406c34.734375 34.734375 33.433593 92.34375 33.433593 92.34375s-57.617187 1.300782-92.351562-33.433594c-26.417969-26.414062-31.988281-66.066406-33.144531-83.539062-.316407-4.832031 3.683593-8.832031 8.515625-8.511719 17.472656 1.152344 57.128906 6.726563 83.546875 33.140625zm0 0" fill="#09a66d"/><path d="m103.292969 230.316406c-26.417969-26.414062-66.074219-31.988281-83.546875-33.140625-4.054688-.269531-7.515625 2.507813-8.335938 6.261719 16.164063 4.734375 33.878906 12.878906 47.878906 26.878906 27.679688 27.675782 32.476563 69.878906 33.285157 85.886719 23.800781 6.917969 44.148437 6.457031 44.148437 6.457031s1.304688-57.609375-33.429687-92.34375zm0 0" fill="#028f5d"/><path d="m7.574219 504.503906s-4.1875-36.621094 46.039062-41.855468c29.964844-3.121094 20.929688-42.898438 51.273438-52.316407 32.257812-10.007812 41.65625 20.710938 66.96875 17.789063 27.207031-3.140625 36.625-18.835938 59.644531-13.601563 23.019531 5.230469 22.078125 40.464844 58.59375 43.945313 43.949219 4.183594 50.230469 24.0625 51.277344 46.035156h-333.796875zm0 0" fill="#de9252"/><path d="m290.09375 458.464844c-36.515625-3.480469-35.574219-38.714844-58.59375-43.945313-13.632812-3.097656-22.492188 1.140625-33.101562 5.765625 13.101562 11.652344 18.082031 35.359375 47.695312 38.179688 43.949219 4.183594 50.230469 24.066406 51.273438 46.039062h44c-1.042969-21.976562-7.324219-41.855468-51.273438-46.039062zm0 0" fill="#d9833b"/><path d="m290.804688 450.996094c-17.382813-1.652344-24.429688-11.691406-31.890626-22.320313-6.414062-9.136719-13.042968-18.582031-25.753906-21.46875-15.507812-3.527343-26.203125 1.148438-36.546875 5.671875-4.570312 2-9.238281 4.039063-14.644531 5.59375v-126.894531l33.625-32.667969c10.121094-.050781 62.535156-1.992187 96.179688-35.636718 36.582031-36.578126 35.6875-95.332032 35.628906-97.816407-.089844-4.007812-3.316406-7.238281-7.328125-7.328125-.394531-.007812-9.980469-.199218-23.707031 1.835938-9.527344 1.410156-7.339844 16.25 2.199218 14.835937 5.347656-.792969 10.015625-1.210937 13.597656-1.433593-1.011718 16.117187-6.074218 54.382812-30.996093 79.300781-20.429688 20.425781-49.972657 27.503906-68.800781 29.949219l58.769531-57.09375c6.90625-6.710938-3.535157-17.476563-10.453125-10.761719l-57.449219 55.8125c2.734375-18.84375 10.054687-46.640625 29.625-66.214844 6.601563-6.597656 14.664063-12.300781 23.960937-16.941406 8.613282-4.304688 1.921876-17.730469-6.703124-13.421875-10.742188 5.367187-20.117188 12.015625-27.863282 19.757812-30.914062 30.914063-35.0625 77.664063-35.574218 92.902344l-24.710938 24.007812v-82.203124c9.15625-9.539063 41.660156-46.609376 41.660156-92.023438 0-51.730469-42.183594-92.644531-43.976562-94.359375-2.902344-2.769531-7.464844-2.769531-10.367188 0-1.792968 1.714844-43.976562 42.628906-43.976562 94.359375 0 8.296875 1.109375 16.847656 3.300781 25.417969 2.382813 9.332031 16.917969 5.632812 14.53125-3.710938-1.878906-7.359375-2.832031-14.664062-2.832031-21.707031 0-35.121094 23.488281-65.832031 34.167968-77.976562 10.6875 12.121093 34.152344 42.75 34.152344 77.976562 0 28.21875-15.160156 53.582031-26.660156 68.761719v-83.410157c0-9.628906-15-9.644531-15 0v83.460938c-2.320312-3.054688-4.777344-6.496094-7.234375-10.308594-5.210937-8.097656-17.832031.011719-12.609375 8.117188 8 12.433594 16.011719 21.378906 19.84375 25.390625v156.136719l-22.734375-23.398438c-.050781-10.109375-1.988281-62.523438-35.640625-96.175781-36.578125-36.578125-95.34375-35.683594-97.820312-35.625-4.007813.089843-7.238282 3.320312-7.328126 7.328125-.054687 2.484375-.953124 61.238281 35.628907 97.816406 30.917969 30.914062 77.667969 35.0625 92.910156 35.570312l34.988281 36.011719v54.636719c-6.5625-.480469-11.996094-4.019531-18.585937-8.320312-14.210938-9.277344-28.753907-14.628907-45.71875-9.261719-15.597657 4.9375-23.5625 17.683593-30.011719 31.765625-5.589844 12.199218-9.265625 19.15625-19.816406 20.253906-19.636719 2.046875-34.199219 8.820312-43.285156 20.140625-11.132813 13.859375-9.5039068 29.371094-9.429688 30.023437.433594 3.789063 3.636719 6.648438 7.453125 6.648438h48.890625c9.632812 0 9.644531-15 0-15h-40.921875c.710937-3.539062 2.285156-8.03125 5.699219-12.28125 6.488281-8.082031 17.640625-12.996094 33.144531-14.609375 19.585937-2.042969 26.414063-16.949219 31.898437-28.929687 4.613282-10.066407 9.558594-20.023438 20.820313-23.683594 12.625-4.105469 22.632813.671875 33.078125 7.496094 8.742188 5.707031 18.652344 12.175781 32.527344 10.578124 12.832031-1.480468 21.90625-5.445312 29.910156-8.945312 9.589844-4.195312 16.515625-7.226562 27.214844-4.792969 6.730468 1.527344 10.769531 6.871094 16.796875 15.460938 8.234375 11.726562 18.480469 26.324219 42.75 28.636719 34.027343 3.242187 41.757812 15.570312 43.835937 31.070312h-235.753906c-9.628906 0-9.644531 15 0 15h243.902344c4.222656 0 7.691406-3.632812 7.488281-7.855469-1.125-23.652343-8.902344-48.464843-58.054687-53.148437zm-241.125-167.070313c-24.832032-24.828125-29.941407-63.136719-30.980469-79.285156 16.15625 1.042969 54.460937 6.152344 79.289062 30.980469 20.429688 20.429687 27.507813 49.972656 29.957031 68.800781l-57.101562-58.769531c-2.886719-2.96875-7.632812-3.039063-10.605469-.152344-2.96875 2.886719-3.039062 7.636719-.152343 10.605469l55.78125 57.410156c-18.867188-2.753906-46.683594-10.089844-66.1875-29.589844zm0 0"/><path d="m111.6875 447.300781c-9.652344 0-9.667969 15 0 15 9.652344 0 9.667969-15 0-15zm0 0"/><path d="m189.121094 469.273438c-9.652344 0-9.667969 15 0 15 9.652344 0 9.667968-15 0-15zm0 0"/><path d="m229.929688 442.070312c-9.652344 0-9.667969 15 0 15 9.652343 0 9.667968-15 0-15zm0 0"/></svg>