<?xml version="1.0" encoding="UTF-8" standalone="no"?>
<!-- Created with Inkscape (http://www.inkscape.org/) -->

<svg
   version="1.1"
   id="svg4017"
   xml:space="preserve"
   width="682.66669"
   height="682.66669"
   viewBox="0 0 682.66669 682.66669"
   xmlns="http://www.w3.org/2000/svg"
   xmlns:svg="http://www.w3.org/2000/svg"><defs
     id="defs4021"><clipPath
       clipPathUnits="userSpaceOnUse"
       id="clipPath4031"><path
         d="M 0,512 H 512 V 0 H 0 Z"
         id="path4029" /></clipPath></defs><g
     id="g4023"
     transform="matrix(1.3333333,0,0,-1.3333333,0,682.66667)"><g
       id="g4025"><g
         id="g4027"
         clip-path="url(#clipPath4031)"><g
           id="g4033"
           transform="translate(380.5605,214)"><path
             d="m 0,0 c 0,-91.68 -74.124,-166 -165.561,-166 -91.436,0 -165.56,74.32 -165.56,166 0,91.68 74.124,166 165.56,166 C -74.124,166 0,91.68 0,0"
             style="fill:#97c9e8;fill-opacity:1;fill-rule:nonzero;stroke:none"
             id="path4035" /></g><g
           id="g4037"
           transform="translate(215,380)"><path
             d="M 0,0 C -8.498,0 -16.847,-0.645 -25,-1.883 54.574,-13.968 115.561,-82.842 115.561,-166 c 0,-83.158 -60.987,-152.032 -140.561,-164.117 8.153,-1.238 16.502,-1.883 25,-1.883 91.437,0 165.561,74.32 165.561,166 C 165.561,-74.32 91.437,0 0,0"
             style="fill:#60b6ff;fill-opacity:1;fill-rule:nonzero;stroke:none"
             id="path4039" /></g><g
           id="g4041"
           transform="translate(193.4814,315.4873)"><path
             d="m 0,0 c -25.504,-15.982 -44.632,-41.554 -30.286,-70.322 14.346,-28.768 46.225,-17.58 75.715,-13.585 29.489,3.996 7.173,-87.103 24.707,-109.478 17.533,-22.376 66.947,22.375 62.166,51.143 -7.08,42.595 -9.565,57.536 47.819,87.902 l 0.155,0.057 C 160.935,11.213 102.386,59.811 31.887,64.18 L 31.88,63.929 C 31.88,63.929 25.504,15.982 0,0"
             style="fill:#baeb6c;fill-opacity:1;fill-rule:nonzero;stroke:none"
             id="path4043" /></g><g
           id="g4045"
           transform="translate(225.3682,379.667)"><path
             d="M 0,0 Z"
             style="fill:#baeb6c;fill-opacity:1;fill-rule:nonzero;stroke:none"
             id="path4047" /></g><g
           id="g4049"
           transform="translate(318.7314,343.3701)"><path
             d="M 0,0 C 0.011,-0.009 0.021,-0.017 0.031,-0.025 0.021,-0.017 0.011,-0.009 0,0"
             style="fill:#baeb6c;fill-opacity:1;fill-rule:nonzero;stroke:none"
             id="path4051" /></g><g
           id="g4053"
           transform="translate(338.9756,324.0059)"><path
             d="M 0,0 C 0.002,-0.003 0.005,-0.006 0.007,-0.009 0.005,-0.006 0.002,-0.003 0,0"
             style="fill:#baeb6c;fill-opacity:1;fill-rule:nonzero;stroke:none"
             id="path4055" /></g><g
           id="g4057"
           transform="translate(105.0146,138.8838)"><path
             d="m 0,0 c -7.657,11.682 13.549,39.156 18.33,59.933 4.782,20.777 -23.909,19.178 -32.677,26.371 -8.766,7.192 -20.721,38.357 -29.488,45.55 l -1.403,1.106 c -6.68,-18.013 -10.337,-37.499 -10.337,-57.844 0,-54.869 26.555,-103.512 67.477,-133.734 l 0.052,3.479 c 0,0 6.376,27.169 -11.954,55.139"
             style="fill:#baeb6c;fill-opacity:1;fill-rule:nonzero;stroke:none"
             id="path4059" /></g><g
           id="g4061"
           transform="translate(325.7832,173.2451)"><path
             d="M 0,0 C -0.035,0.209 -0.069,0.413 -0.104,0.621 -3.273,-12.176 -7.921,-24.386 -13.858,-35.816 -4.439,-24.702 1.854,-11.151 0,0"
             style="fill:#baeb6c;fill-opacity:1;fill-rule:nonzero;stroke:none"
             id="path4063" /></g><g
           id="g4065"
           transform="translate(225.3682,379.666)"><path
             d="m 0,0 -0.007,-0.25 c 0,0 -0.533,-4.002 -1.904,-10.072 58.058,-21.975 100.564,-75.72 106.412,-140.095 7.316,10.005 20.699,19.709 43.733,31.898 l 0.156,0.056 C 129.048,-52.967 70.499,-4.368 0,0"
             style="fill:#96d629;fill-opacity:1;fill-rule:nonzero;stroke:none"
             id="path4067" /></g><g
           id="g4069"
           transform="translate(169.2441,323.0303)"><path
             d="m 0,0 c -80.062,13.583 -129.729,114.386 -129.729,114.386 0,0 80.141,78.782 160.203,65.2 C 110.536,166.004 160.202,65.2 160.202,65.2 160.202,65.2 80.063,-13.582 0,0"
             style="fill:#49cb5c;fill-opacity:1;fill-rule:nonzero;stroke:none"
             id="path4071" /></g><g
           id="g4073"
           transform="translate(199.7178,502.6162)"><path
             d="m 0,0 c -15.286,2.594 -30.574,1.812 -45.308,-1.138 76.714,-17.228 124.037,-113.248 124.037,-113.248 0,0 -52.46,-51.562 -114.894,-64.061 1.882,-0.423 3.775,-0.814 5.691,-1.138 80.063,-13.583 160.203,65.199 160.203,65.199 0,0 -49.666,100.804 -129.729,114.386"
             style="fill:#07b128;fill-opacity:1;fill-rule:nonzero;stroke:none"
             id="path4075" /></g><g
           id="g4077"
           transform="translate(383.9023,420.877)"><path
             d="m 0,0 c 21.478,50.821 95.895,67.933 95.895,67.933 0,0 39.595,-65.288 18.118,-116.11 -21.477,-50.821 -95.895,-67.932 -95.895,-67.932 0,0 -39.596,65.288 -18.118,116.109"
             style="fill:#49cb5c;fill-opacity:1;fill-rule:nonzero;stroke:none"
             id="path4079" /></g><g
           id="g4081"
           transform="translate(479.7969,488.8096)"><path
             d="m 0,0 c 0,0 -16.924,-3.896 -36.958,-13.478 10.279,-21.775 26.571,-65.965 11.076,-102.631 -11.235,-26.587 -36.957,-43.944 -58.936,-54.455 3.968,-8.408 7.042,-13.478 7.042,-13.478 0,0 74.418,17.111 95.894,67.933 C 39.596,-65.288 0,0 0,0"
             style="fill:#07b128;fill-opacity:1;fill-rule:nonzero;stroke:none"
             id="path4083" /></g><g
           id="g4085"
           transform="translate(364.8535,263.3008)"><path
             d="m 0,0 c -27.039,-14.404 -40.28,-25.721 -46.563,-39.523 -6.746,-14.823 -4.272,-30.732 -0.849,-52.75 2.018,-12.982 -13.411,-37.158 -33.631,-45.819 -7.478,-3.203 -12.807,-2.822 -15.841,1.128 -5.959,7.757 -5.798,31.229 -5.669,50.089 0.178,26.094 0.332,48.628 -10.43,58.205 -3.871,3.442 -8.826,4.898 -14.328,4.222 -4.716,-0.585 -9.499,-1.348 -14.123,-2.085 -27.566,-4.398 -44.919,-6.154 -53.907,12.323 -14.559,29.929 14.916,52.096 28.265,60.236 2.717,1.658 5.241,3.611 7.586,5.785 32.261,3.854 62.751,17.699 89.918,35.035 C -37.001,67.39 -11.994,36.591 0,0 m -203.516,146.463 62.203,-12.124 -79.833,-58.521 c -15.057,6.953 -28.605,16.951 -40.463,28.061 z m 4.668,14.372 -44.12,60.18 c 13.207,5.428 27.384,9.699 41.918,11.6 l 61.034,-83.248 z m -58.09,53.865 36.389,-49.635 -87.541,17.064 c 11.02,8.704 29.212,21.768 51.152,32.571 m -15.365,-100.062 c -17.753,19.131 -30.765,39.591 -38.235,52.686 l 86.98,-16.954 z m 75.864,-46.929 c -2.653,0.52 -5.265,1.153 -7.844,1.873 l 83.012,60.85 68.344,-13.322 C -77.822,97.494 -138.42,56.343 -196.439,67.709 M 74.008,63.438 C 65.604,59.222 57.584,56.027 51.055,53.725 l 22.595,54.021 57.516,23.733 c -0.837,-6.444 -2.426,-12.834 -5.013,-18.957 C 115.991,88.476 92.188,72.558 74.008,63.438 M 25.957,154.86 c 2.212,5.234 5.07,10.081 8.375,14.558 L 58.596,110.624 36.818,58.561 c -3.056,6.49 -6.657,15.015 -9.717,24.698 -6.131,19.391 -11.306,47.554 -1.144,71.601 m 89.672,53.245 c 2.981,-6.396 6.432,-14.651 9.381,-23.98 3.237,-10.239 6.206,-22.925 6.793,-36.158 l -49.949,-20.61 z m -48.865,-77.953 -21.316,51.65 c 10.372,9.7 22.407,17.003 32.656,22.143 8.728,4.379 17.039,7.655 23.698,9.974 z M -296.11,-17.24 c 5.584,-10.583 10.858,-20.58 16.342,-25.167 3.884,-3.248 9.289,-4.91 15.012,-6.669 14.659,-4.506 16.363,-6.717 14.958,-12.515 -1.727,-7.129 -5.888,-15.638 -9.911,-23.869 -7.746,-15.845 -15.063,-30.811 -8.128,-41.621 9.835,-15.325 11.518,-30.412 11.351,-39.796 -44.672,40.283 -62.867,103.907 -46.223,161.736 2.206,-3.779 4.526,-8.172 6.599,-12.099 m 435.313,206.23 c -7.399,23.259 -17.424,39.914 -17.847,40.613 -1.645,2.711 -5.027,4.122 -8.093,3.419 -0.795,-0.183 -19.726,-4.603 -41.564,-15.507 C 42.223,202.796 21.628,183.149 12.141,160.7 4.243,142.012 3.109,119.155 8.712,93.91 c -11.933,13.328 -25.358,24.989 -39.989,34.805 -4.471,8.827 -16.285,30.558 -34.757,53.275 -6.08,7.474 -17.783,-1.908 -11.639,-9.463 12.448,-15.306 21.814,-30.361 27.673,-40.705 l -68.314,13.316 -64.915,88.54 c 6.306,-0.092 12.629,-0.7 18.923,-1.934 19.952,-3.907 39.662,-14.067 58.587,-30.196 7.418,-6.319 17.045,5.182 9.731,11.416 -20.909,17.821 -42.925,29.092 -65.435,33.501 -34.365,6.728 -74.447,-2.102 -115.918,-25.537 -30.912,-17.469 -51.583,-36.654 -52.447,-37.462 -2.764,-2.582 -3.207,-7.278 -0.89,-10.297 3.032,-6.22 14.519,-28.65 33.639,-52.804 11.271,-14.239 23.157,-26.428 35.455,-36.443 -3.493,-2.924 -6.895,-5.988 -10.185,-9.208 -17.57,-17.191 -31.028,-37.466 -39.864,-59.634 -7.808,-19.59 -12.008,-40.657 -12.244,-62.378 -0.387,-35.512 9.905,-69.765 29.766,-99.056 19.4,-28.613 46.524,-50.58 78.438,-63.527 8.927,-3.614 14.574,10.274 5.639,13.901 -11.563,4.69 -22.423,10.697 -32.443,17.845 1.283,7.105 4.255,32.678 -12.735,59.156 -2.377,3.703 4.732,18.244 8.979,26.931 4.377,8.952 8.901,18.208 11.013,26.924 2.243,9.257 -0.28,17.031 -7.296,22.483 -5.154,4.005 -11.889,6.076 -17.833,7.903 -3.859,1.186 -8.233,2.531 -9.795,3.837 -3.219,2.693 -8.476,12.656 -12.701,20.661 -4.683,8.877 -9.149,17.326 -13.704,22.532 10.251,24.348 26.722,45.894 47.344,62.38 18.839,-12.836 40.343,-21.691 63.199,-23.484 -26.508,-20.539 -35.082,-46.763 -22.823,-71.96 14.309,-29.416 43.767,-24.718 69.758,-20.575 4.497,0.718 9.148,1.459 13.606,2.012 1.671,0.211 2.175,-0.243 2.511,-0.542 5.687,-5.061 5.521,-29.24 5.401,-46.895 -0.167,-24.42 -0.324,-47.487 8.775,-59.331 4.638,-6.038 11.174,-9.123 18.835,-9.123 4.587,0 9.577,1.106 14.805,3.346 22.622,9.69 46.135,38.845 42.548,61.911 -3.136,20.169 -5.208,33.493 -0.32,44.233 4.524,9.941 15.455,19.144 36.979,30.887 2.579,-11.608 3.882,-23.685 3.746,-36.076 -0.46,-42.293 -17.364,-81.875 -47.598,-111.454 -33.786,-33.055 -81.275,-49.375 -128.25,-44.201 -9.573,1.04 -11.227,-13.856 -1.641,-14.91 51.417,-5.663 103.403,12.213 140.381,48.389 33.098,32.381 51.604,75.712 52.108,122.012 0.669,61.398 -30.834,115.788 -78.787,147.118 9.909,7.067 17.29,13.178 21.384,16.723 C -17.102,100.211 -1.595,84.76 11.306,66.756 42.278,23.531 54.564,-29.167 45.899,-81.632 28.012,-189.935 -74.649,-263.503 -182.971,-245.608 c -52.468,8.665 -98.422,37.241 -129.395,80.465 -30.974,43.225 -43.26,95.923 -34.595,148.388 1.559,9.439 -13.235,11.915 -14.799,2.443 -9.318,-56.417 3.894,-113.086 37.201,-159.568 33.307,-46.48 82.723,-77.21 139.145,-86.527 11.801,-1.949 23.612,-2.912 35.34,-2.912 44.342,0 87.476,13.771 124.238,40.109 46.484,33.305 77.217,82.717 86.534,139.135 6.829,41.344 1.544,82.817 -14.868,120.323 7.574,2.237 20.467,6.573 34.581,13.621 29.477,14.719 50.072,34.365 59.559,56.815 9.487,22.45 9.222,50.911 -0.767,82.306"
             style="fill:#000000;fill-opacity:1;fill-rule:nonzero;stroke:none"
             id="path4087" /></g></g></g></g></svg>
