<svg id="Layer_1" enable-background="new 0 0 479.994 479.994" height="512" viewBox="0 0 479.994 479.994" width="512" xmlns="http://www.w3.org/2000/svg"><path d="m161.747 405.714c-.377 0-.755-.129-1.118-.232-100.402-28.485-152.577-149.43-95.291-249.978 5.19-9.12 16.63-9.86 22.73-1.51 1.685 2.309 3.634 4.41 5.79 6.282 2.449 2.127 6.305.561 6.587-2.67 4.436-50.907 28.508-96.568 66.704-123.702 8.42-5.99 19.57-.46 21.43 10.74.564 3.408 1.297 6.761 2.188 10.039.805 2.962 4.548 3.93 6.704 1.746 10.374-10.506 18.36-23.136 23.297-37.425 3.7-10.7 17.02-14.51 25.78-7.34 14.228 11.637 26.313 25.725 36.053 41.401 1.863 2.999 6.442 2.31 7.272-1.121.581-2.399 1.077-4.835 1.485-7.299 1.86-11.2 13.01-16.73 21.43-10.74 38.195 27.133 62.268 72.795 66.704 123.702.282 3.231 4.138 4.797 6.587 2.67 2.156-1.872 4.105-3.973 5.79-6.282 6.1-8.35 17.54-7.61 22.73 1.51 57.397 100.739 4.907 221.954-95.878 250.139-.437.122 10.924.156-156.974.07z" fill="#ff8c95"/><path d="m318.72 405.644c-.843.234 10.261.156-156.973.071-.38 0-.758-.132-1.118-.232-43.066-12.215-77.256-41.446-97.745-78.777-3.569-6.503 2.972-13.95 9.891-11.275 114.891 44.419 234.686 16.954 293.633-58.436 22.259-28.47 33.2-60.407 37.932-90.248 1.217-7.673 11.533-9.336 15.04-2.404 48.941 96.75-1.218 213.488-100.66 241.301z" fill="#ff6d7a"/><path d="m313.618 373.714h-147.78c-69.146-21.784-109.947-100.465-84.623-175.798 1.248-3.712 5.034-5.922 8.887-5.223 20.041 3.635 40.299-10.286 42.226-32.309 2.408-27.721 12.103-55.311 29.146-77.139 2.683-3.436 7.641-3.868 11.083-1.192 14.019 10.895 34.554 10.163 47.681-3.139 5.775-5.852 10.934-12.124 15.452-18.791 3.024-4.463 9.551-4.695 12.775-.374 2.438 3.267 4.758 6.671 6.953 10.206 11.317 18.206 35.06 21.97 51.358 10.457 3.383-2.39 8.093-1.666 10.685 1.564 17.69 22.043 27.699 50.224 30.147 78.408 1.923 21.97 22.15 35.972 42.227 32.314 3.853-.702 7.641 1.51 8.89 5.221 25.235 74.979-15.079 154.02-85.107 175.795z" fill="#fff0a6"/><path d="m313.618 373.714h-147.78c-18.901-5.957-35.913-16.25-50.057-29.823-5.777-5.544-.717-15.242 7.124-13.617 108.258 22.437 223.017-14.256 266.29-111.42 3.215-7.22 13.911-5.913 15.187 1.887 11.159 68.233-28.318 133.552-90.764 152.973z" fill="#ffe773"/><path d="m323.178 159.994c-12.16 0-22 9.839-22 22v-13.09c0-12.97-10.52-23.5-23.5-23.5-12.968 0-23.5 10.519-23.5 23.5v-7.62c0-12.93-10.2-24.29-24-24.29-13.504 0-24 10.865-24 23.91v8.02c0-13.94-12.22-24.75-26.46-23.4-12.32 1.17-21.54 11.86-21.54 24.19v42.28h-21.4c-11.377 0-20.6 9.223-20.6 20.6v61.07c0 47.7 45 51.02 45 98.71v71.62c0 4.418 3.582 8 8 8h141c4.418 0 8-3.582 8-8v-82.05c0-36.84 27-48.93 27-85.76v-114.18c0-12.15-9.85-22.01-22-22.01z" fill="#ffebd2"/><g fill="#fff3e4"><path d="m182.468 420.974v43.02c0 4.418-3.582 8-8 8h-5.29c-4.418 0-8-3.582-8-8 0 0 0-71.825-.001-71.927-.027-6.618 8.577-9.187 12.109-3.59 5.387 8.539 9.182 18.647 9.182 32.497z"/><path d="m208.953 240.594h-15.822c-30.355 0-55.071 24.403-55.459 54.756-.178 13.953-21.094 14.229-21.468.298-.041-1.537-.026-63.166-.026-63.053 0-11.377 9.223-20.6 20.6-20.6h73.88c18.631-.001 17.693 28.599-1.705 28.599z"/><path d="m184.179 145.495c7.282.602 10.029 10.08 4.101 14.352-6.252 4.504-10.102 11.929-10.102 19.868v32.28h-20v-42.28c0-13.719 11.374-25.429 26.001-24.22z"/><path d="m230.725 137c9.898.216 12.967 13.24 4.401 18.205-7.06 4.092-11.949 11.705-11.949 20.699v44.49c-1.955-4.832-6.776-8.4-12.52-8.4h-4.48v-51.09c.001-13.105 10.687-24.207 24.548-23.904z"/><path d="m280.963 145.635c6.584.926 8.188 9.728 2.509 13.184-6.808 4.144-11.294 11.633-11.294 20.085v35.74c.043 6.835-8.394 9.994-12.715 4.699-3.304-4.047-5.285-9.216-5.285-14.849v-35.59c0-14.265 12.624-25.259 26.785-23.269z"/><path d="m330.345 161.188c4.894 1.676 4.973 8.519.217 10.553-7.744 3.313-13.384 10.995-13.384 20.253 0 0 .009 37.715.026 38.074.251 5.175-5.889 8.159-9.557 4.501-3.996-3.986-6.469-9.499-6.469-15.585v-36.99c0-15.028 14.782-25.732 29.167-20.806z"/></g><path d="m318.438 240.474c-9.954-2.176-17.26-11.063-17.26-21.49v-14.49c0 13.033-10.573 23.5-23.5 23.5-12.894 0-23.5-10.442-23.5-23.5v.99c0 11.1-7.36 20.552-17.093 23.487 1.921-.612 3.151-2.48 3.065-4.501-.703-16.591-14.31-28.477-29.492-28.477-2.474 0-4.48 2.006-4.48 4.48 0-2.474-2.006-4.48-4.48-4.48h-39.04c-2.474 0-4.48 2.006-4.48 4.48v11.52h48c4.537 0 8.147-.393 12.04 2.31 1.717 1.145 3.225 2.761 4.33 4.76 1.79 3.281 1.816 6.427 1.45 10.15-1.818 19.269-18.116 34.78-38.3 34.78h-7.424c-2.236 0-2.797 3.139-.687 3.878 23.626 8.278 41.708 28.703 42.421 53.812.11 4.05 3.15 7.41 7.18 7.82h.01c4.75.48 8.93-3.28 8.81-8.06-.41-17-6.97-33.12-18.54-46.23-1.57-1.78-1.3-4.5.61-5.91 8.176-6.065 14.511-14.292 18.268-23.79 5.795-.864 12.411-3.187 18.892-8.53 11.287 7.823 25.313 8.919 37.11 4.19 11.406 15.867 32.453 20.079 48.724 11.363 2.558-1.37 4.106-4.091 4.106-6.993v-26.55c0 14.626-13.936 24.683-26.74 21.481z" fill="#ffd9ad"/><g><path d="m421.552 151.545c-7.709-13.53-25.181-15.283-35.085-3.613-6.901-51.795-32.794-94.795-69.041-120.55-12.303-8.742-29.147-2.231-33.384 13.311-9.315-13.4-20.173-25.199-32.426-35.221-13.025-10.654-32.878-5.08-38.408 10.92-3.688 10.671-9.182 20.353-16.391 28.911-.123-.654-.239-1.31-.348-1.967-2.845-17.155-20.791-25.311-33.96-15.954-36.246 25.755-62.138 68.745-69.041 120.55-9.938-11.711-27.4-9.876-35.084 3.614-47.04 82.574-24.381 183.3 46.88 235.614 3.562 2.615 8.568 1.847 11.183-1.715s1.847-8.568-1.714-11.183c-66.251-48.636-84.499-140.978-42.447-214.797 2.254-3.956 6.568-4.516 9.32-.753 3.765 5.152 8.573 9.472 14.29 12.839 5.169 3.046 11.743-.49 12.05-6.485 2.633-51.517 26.496-98.113 63.832-124.643 3.876-2.752 8.111.724 8.908 5.529.996 6.004 2.494 11.932 4.453 17.621 1.855 5.385 8.619 7.176 12.89 3.364 14.044-12.531 24.239-27.778 30.302-45.32 1.885-5.454 8.691-7.414 13.157-3.762 15.453 12.639 28.488 28.448 38.745 46.985 3.348 6.053 12.312 5.27 14.563-1.267 1.959-5.686 3.458-11.615 4.454-17.621.811-4.887 5.086-8.246 8.908-5.53 37.336 26.53 61.198 73.125 63.832 124.643.306 5.991 6.873 9.531 12.05 6.485 5.716-3.367 10.523-7.687 14.289-12.838 2.744-3.758 7.063-3.211 9.32.752 52.6 92.335 8.691 203.626-81.472 235.425 0-22.108-1.1-27.308 12.504-51.962 6.795-12.313 14.496-26.268 14.496-46.747v-104.218c0-4.418-3.582-8-8-8s-8 3.582-8 8v27.032c0 7.72-6.28 14-14 14s-14-6.283-14-14.007v-36.992c0-7.72 6.28-14.001 14-14.001 4.418 0 8-3.582 8-8s-3.582-8-8-8c-6.045 0-11.674 1.803-16.39 4.892-8.121-19.59-32.874-25.763-49.191-12.228-12.642-21.15-42.693-20.614-54.963.028-6.559-5.355-15.085-7.943-23.669-7.128-16.142 1.531-28.787 15.657-28.787 32.157 0 4.418 3.582 8 8 8s8-3.582 8-8c0-8.34 6.281-15.468 14.299-16.229 9.393-.889 17.701 6.075 17.701 15.437v35.07h-61.396c-15.772 0-28.604 12.832-28.604 28.604v61.062c0 26.879 13.018 41.638 24.503 54.659 10.998 12.469 20.497 23.237 20.497 44.054v79.621c0 4.418 3.582 8 8 8s8-3.582 8-8v-79.621c0-26.866-13.015-41.621-24.498-54.638-11.001-12.472-20.502-23.244-20.502-44.075v-61.062c0-6.95 5.654-12.604 12.604-12.604h73.875c3.044 0 5.521 2.477 5.521 5.521 0 16.806-13.673 30.479-30.479 30.479h-27.74c-4.406 0-7.983 3.563-8 7.969s3.533 7.997 7.939 8.03c30.378.233 56.942 25.98 53.888 55.944-.448 4.396 2.752 8.322 7.148 8.77 4.394.445 8.322-2.752 8.77-7.148 2.431-23.853-8.952-45.898-27.958-59.735 18.783-5.969 32.432-23.576 32.432-44.31 0-10.665-7.806-19.519-18-21.207v-43.404c0-8.773 7.178-15.91 16-15.91s16 7.31 16 16.295v43.205c0 13.899 8.916 25.995 22.186 30.098 4.237 1.31 8.706-1.074 10.006-5.28 1.306-4.221-1.059-8.701-5.279-10.006-6.526-2.018-10.912-7.971-10.912-14.812v-35.586c0-8.547 6.953-15.5 15.5-15.5s15.5 6.953 15.5 15.5v50.079c0 22.577 24.127 37.061 44 26.528v50.665c0 33.714-27 46.671-27 85.762v90.051c0 4.418 3.582 8 8 8s8-3.582 8-8v-60.236c103.154-32.53 153.932-157.418 95.374-260.21z"/></g></svg>