<svg height="496pt" viewBox="0 0 496 496" width="496pt" xmlns="http://www.w3.org/2000/svg"><path d="m320 344h32v144h-32zm0 0" fill="#cf9e76"/><path d="m144 344h32v144h-32zm0 0" fill="#cf9e76"/><path d="m8 344v-336h480v336zm0 0" fill="#e6e9ed"/><path d="m456 128h-64l49.039062-49.039062c9.441407 14 14.960938 30.878906 14.960938 49.039062zm0 0" fill="#b4dd7f"/><path d="m441.039062 78.960938-49.039062 49.039062h-24v-24l49.039062-49.039062c9.519532 6.320312 17.679688 14.480468 24 24zm0 0" fill="#b4dd7f"/><path d="m417.039062 54.960938-49.039062 49.039062v-64c18.160156 0 35.039062 5.519531 49.039062 14.960938zm0 0" fill="#b4dd7f"/><path d="m392 128h64c0 48.640625-39.359375 88-88 88v-88zm0 0" fill="#69d6f4"/><path d="m368 128v88c-48.640625 0-88-39.359375-88-88 0-3.359375.160156-6.640625.558594-9.839844 2.242187 1.199219 4.722656 1.839844 7.441406 1.839844 8.800781 0 16-7.199219 16-16 0-8.238281-6.398438-15.121094-14.480469-15.921875 14.558594-28.558594 44.242188-48.078125 78.480469-48.078125zm0 0" fill="#fcd770"/><g fill="#ffc729"><path d="m275.039062 113.359375c-1.917968-2.640625-3.039062-5.839844-3.039062-9.359375 0-8.800781 7.199219-16 16-16 .558594 0 1.039062 0 1.519531.078125 8.082031.800781 14.480469 7.683594 14.480469 15.921875 0 8.800781-7.199219 16-16 16-2.71875 0-5.199219-.640625-7.441406-1.839844-2.160156-1.199218-4.078125-2.800781-5.519532-4.800781zm0 0"/><path d="m212.960938 158.640625c1.917968 2.640625 3.039062 5.839844 3.039062 9.359375 0 8.800781-7.199219 16-16 16s-16-7.199219-16-16c0-5.601562 2.960938-10.640625 7.359375-13.441406 2.480469-1.679688 5.441406-2.558594 8.640625-2.558594 5.28125 0 10.078125 2.640625 12.960938 6.640625zm0 0"/><path d="m128 40c8.800781 0 16 7.199219 16 16 0 5.601562-2.960938 10.640625-7.359375 13.441406-2.480469 1.679688-5.441406 2.558594-8.640625 2.558594-4.078125 0-7.839844-1.519531-10.640625-4.160156-3.28125-2.878906-5.359375-7.121094-5.359375-11.839844 0-8.800781 7.199219-16 16-16zm0 0"/><path d="m66.640625 124.160156c3.28125 2.878906 5.359375 7.121094 5.359375 11.839844 0 8.800781-7.199219 16-16 16s-16-7.199219-16-16 7.199219-16 16-16c4.078125 0 7.839844 1.519531 10.640625 4.160156zm0 0"/></g><path d="m0 0v352h136v128h-104v16h432v-16h-104v-128h136v-352zm152 352h16v128h-16zm160 0v128h-128v-128zm32 128h-16v-128h16zm136-144h-464v-320h464zm0 0"/><path d="m0 480h16v16h-16zm0 0"/><path d="m480 480h16v16h-16zm0 0"/><path d="m56 160c13.230469 0 24-10.769531 24-24 0-4.136719-1.144531-7.976562-3-11.375l41.816406-46.464844c2.832032 1.175782 5.925782 1.839844 9.183594 1.839844 1.886719 0 3.710938-.273438 5.472656-.6875l47.625 74.070312c-3.144531 4.066407-5.097656 9.097657-5.097656 14.617188 0 13.230469 10.769531 24 24 24s24-10.769531 24-24c0-2.367188-.449219-4.609375-1.089844-6.769531l49.234375-35.804688c-.023437.855469-.144531 1.71875-.144531 2.574219 0 52.9375 43.0625 96 96 96s96-43.0625 96-96-43.0625-96-96-96c-34.710938 0-66.175781 18.425781-83.289062 48.335938-11.671876 1.617187-20.710938 11.558593-20.710938 23.664062 0 2.367188.449219 4.609375 1.097656 6.769531l-51.523437 37.460938c-3.863281-2.65625-8.535157-4.230469-13.574219-4.230469-1.886719 0-3.710938.273438-5.472656.6875l-47.625-74.070312c3.144531-4.066407 5.097656-9.097657 5.097656-14.617188 0-13.230469-10.769531-24-24-24s-24 10.769531-24 24c0 4.136719 1.144531 7.976562 3 11.375l-41.824219 46.464844c-2.824219-1.175782-5.929687-1.839844-9.175781-1.839844-13.230469 0-24 10.769531-24 24s10.769531 24 24 24zm320-111.59375c10.007812 1 19.441406 3.914062 28.015625 8.265625l-28.015625 28.015625zm0 159.1875v-71.59375h71.59375c-3.761719 37.734375-33.859375 67.832031-71.59375 71.59375zm35.3125-87.59375 28.023438-28.023438c4.351562 8.582032 7.265624 18.015626 8.265624 28.023438zm19.183594-41.808594-41.808594 41.808594h-12.6875v-12.6875l41.808594-41.808594c4.6875 3.742188 8.945312 8 12.6875 12.6875zm-70.496094-29.640625v159.042969c-40.367188-4.027344-72-38.1875-72-79.59375 13.230469 0 24-10.769531 24-24 0-8.320312-4.265625-15.65625-10.710938-19.960938 13.261719-20.160156 34.6875-33.101562 58.710938-35.488281zm-72 47.449219c4.414062 0 8 3.59375 8 8s-3.585938 8-8 8-8-3.59375-8-8 3.585938-8 8-8zm-80 72c0 4.40625-3.585938 8-8 8s-8-3.59375-8-8 3.585938-8 8-8 8 3.59375 8 8zm-80-120c4.414062 0 8 3.59375 8 8s-3.585938 8-8 8-8-3.59375-8-8 3.585938-8 8-8zm-72 80c4.414062 0 8 3.59375 8 8s-3.585938 8-8 8-8-3.59375-8-8 3.585938-8 8-8zm0 0"/><path d="m32 304h16v16h-16zm0 0"/><path d="m64 304h160v16h-160zm0 0"/><path d="m32 272h16v16h-16zm0 0"/><path d="m64 272h160v16h-160zm0 0"/><path d="m32 240h16v16h-16zm0 0"/><path d="m64 240h160v16h-160zm0 0"/><path d="m32 208h16v16h-16zm0 0"/><path d="m64 208h160v16h-160zm0 0"/></svg>