<svg id="Layer_1" enable-background="new 0 0 479.996 479.996" height="512" viewBox="0 0 479.996 479.996" width="512" xmlns="http://www.w3.org/2000/svg"><g><path d="m180.121 188.102c-.85 4.331-1.892 9.761-3.411 17.593-.337 1.736-1.241 3.318-2.569 4.487l-82.128 72.301c-5.013 4.413-12.843 1.1-13.281-5.564-.63-9.589 2.741-19.275 9.456-25.999l52.66-52.65c8.22-8.219 17.843-14.677 28.399-19.116 5.867-2.467 12.099 2.702 10.874 8.948z"/><path d="m477.078 101.42-19.518 18.836c-3.326 3.21-8.688 2.954-11.655-.591-8.121-9.703-20.406-15.665-34.637-15.665h-104.495c-6.876 0-10.548-8.1-6.017-13.272l77.092-87.998c3.033-3.466 8.377-3.672 11.68-.39l87.66 87.66c3.152 3.173 3.123 8.291-.11 11.42z"/><path d="m351.065 170.529c.273 4.253 3.993 7.471 8.255 7.471h60.127c6.064 0 11.66 4.893 11.65 11.549-.009 6.357-5.297 11.451-11.654 11.451h-60.515c-4.41 0-8 3.58-8 8s3.59 8 8 8h54.096c6.333 0 11.527 5.058 11.658 11.39.008.402.009.804.002 1.206-.114 6.338-5.32 11.404-11.658 11.404h-59.93c-4.264 0-7.987 3.218-8.26 7.473-.299 4.659 3.399 8.527 7.983 8.527h25.873c26.894 0 27.886 41.745-1.123 40.72l-29.316-.695c-4.243-.101-7.645-3.495-7.805-7.737-.292-7.756-2.319-19.922-13.22-30.788-18.258-18.172-47.551-17.209-64.698 1.268-1.594 1.718-3.882 2.642-6.221 2.499-17.446-1.064-33.325 7.903-41.714 22.29-1.353 2.321-3.746 3.819-6.426 4.008-18.769 1.322-35.516 14.865-40.33 33.861-.751 2.965-3.198 5.251-6.211 5.784-21.075 3.725-37.171 22.213-37.161 44.311.025 55.949-.115 53.083.15 56.45.353 4.591 1.337 8.985 2.912 13.085 1.135 2.955.506 6.293-1.708 8.555l-26.413 26.989c-3.093 3.155-8.176 3.2-11.34.1l-85.22-84c-3.323-3.282-3.121-8.665.33-11.7l187.68-165.22c8.893-45.748 21.651-131.84 83.713-143.641 7.505-1.427 12.546 7.487 7.463 13.191l-1.916 2.15c-10.867 12.2-2.22 31.512 14.118 31.519 23.405.009 118.04.012 118.535.033 27.111 1.138 25.807 41.968-1.328 41.968h-52.395c-4.595 0-8.282 3.87-7.983 8.529z"/><path d="m324.468 290.38v36.78c0 24.168-24.033 34.441-42 26.12v6.49c0 24.514-24.504 34.38-42 26.12 0 24.497-24.162 34.678-42 26.3v12.93c0 27.874-31.739 36.775-48.74 21.71-5.97-5.3-9.26-13.01-9.26-21.71v-52.6c0-21.689 23.031-35.509 42-25.93v-13.12c0-21.648 22.988-35.533 42-25.93 0-23.145 24.493-36.275 43.27-25.62 3.62-11.83 14.63-20.51 27.61-20.54 16.389-.038 29.12 13.182 29.12 29z"/></g></svg>