<svg id="Capa_1" enable-background="new 0 0 512 512" height="512" viewBox="0 0 512 512" width="512" xmlns="http://www.w3.org/2000/svg"><g><path d="m146.283 181.738c0-7.985-6.473-14.458-14.458-14.458h-101.08v159.113c0 7.715-2.451 15.237-7.041 21.438-7.463 10.085-11.881 22.557-11.881 36.067v80.566c0 7.474 6.059 13.533 13.533 13.533h6.887c7.474 0 13.533-6.059 13.533-13.533v15.954c0 9.376 7.601 16.977 16.977 16.977h6.268c9.376 0 16.977-7.601 16.977-16.977v6.268c0 9.376 7.601 16.977 16.977 16.977h6.269c9.376 0 16.977-7.601 16.977-16.976v-6.269c0 9.376 7.601 16.977 16.977 16.977h6.269c9.376 0 16.977-7.601 16.977-16.977v-101.078c0-7.985 6.473-14.458 14.458-14.458h24.306l.007-.294c.009-18.878-12.667-35.407-30.902-40.293l-5.204-1.395c-13.464-3.608-22.827-15.809-22.827-29.748v-111.414z" fill="#a55e4d"/><path d="m174.314 324.296-5.204-1.395c-13.464-3.608-22.827-15.809-22.827-29.748v-111.415c0-7.985-6.473-14.458-14.458-14.458h-25.542v105.873c0 7.236 2.523 14.004 6.834 19.345 8.664 10.734 13.329 24.144 13.329 37.938v107.713c0 21.676-17.572 39.247-39.247 39.247h-41.42v3.023c0 9.376 7.601 16.977 16.977 16.977h6.268c9.376 0 16.977-7.601 16.977-16.977v6.268c0 9.376 7.601 16.977 16.977 16.977h6.269c9.376 0 16.977-7.601 16.977-16.977v-6.269c0 9.376 7.601 16.977 16.977 16.977h6.269c9.376 0 16.977-7.601 16.977-16.977v-101.078c0-7.985 6.473-14.458 14.458-14.458h24.306l.007-.294c.007-18.878-12.669-35.406-30.904-40.292z" fill="#904f40"/><path d="m238.205 166.039c-7.21 0-13.056-5.845-13.056-13.056v-127.268c0-7.21 5.845-13.056 13.056-13.056 7.21 0 13.056 5.845 13.056 13.056v127.268c-.001 7.211-5.846 13.056-13.056 13.056z" fill="#ffd064"/><circle cx="421.816" cy="246.192" fill="#86a0af" r="57.769"/><path d="m421.816 279.045c-18.116 0-32.853-14.737-32.853-32.853s14.737-32.853 32.853-32.853c18.115 0 32.852 14.737 32.852 32.853s-14.738 32.853-32.852 32.853z" fill="#f1f4f6"/><path d="m484.972 34.002h-6.887c-7.474 0-13.533 6.059-13.533 13.533v-15.954c0-9.376-7.601-16.977-16.977-16.977h-6.268c-9.376 0-16.977 7.601-16.977 16.977v-6.268c0-9.376-7.601-16.977-16.977-16.977h-6.269c-9.376 0-16.977 7.601-16.977 16.977v6.269c0-9.376-7.601-16.977-16.977-16.977h-6.269c-9.376 0-16.977 7.601-16.977 16.977v101.078c0 7.985-6.473 14.458-14.458 14.458h-24.306l-.007.294c-.009 18.878 12.667 35.407 30.902 40.293l5.205 1.395c10.98 2.942 19.232 11.599 21.903 22.253h12.608c10.547-13.929 27.265-22.928 46.084-22.928s35.536 8.999 46.084 22.928h11.685v-25.745c0-7.715 2.451-15.237 7.041-21.438 7.463-10.085 11.881-22.557 11.881-36.067v-80.568c-.001-7.474-6.06-13.533-13.534-13.533z" fill="#dfaca0"/><path d="m467.899 281.033c-10.547 13.929-27.265 22.928-46.084 22.928s-35.536-8.999-46.084-22.928h-11.685v49.229c0 7.985 6.473 14.458 14.458 14.458h101.079v-63.687z" fill="#dfaca0"/><g fill="#d59b8b"><path d="m484.972 34.002h-6.887c-3.742 0-7.13 1.519-9.579 3.974v70.126c0 13.51-4.417 25.982-11.881 36.067-4.59 6.201-7.041 13.723-7.041 21.438v29.917c7.167 3.936 13.409 9.349 18.315 15.828h11.685v-25.745c0-7.715 2.451-15.237 7.041-21.438 7.463-10.085 11.881-22.557 11.881-36.067v-80.567c-.001-7.474-6.06-13.533-13.534-13.533z"/><path d="m376.383 281.876c-.22-.279-.437-.56-.651-.843h-2.124c.915.303 1.84.585 2.775.843z"/><path d="m467.899 281.033c-5.361 7.08-12.315 12.885-20.329 16.884-5.203 15.576-19.907 26.804-37.233 26.804h-46.29v5.542c0 7.985 6.473 14.458 14.458 14.458h101.08v-63.687h-11.686z"/></g><path d="m364.047 246.192c0-13.086 4.351-25.155 11.685-34.84h-28.149c-4.668 0-8.452 3.784-8.452 8.452v52.777c0 4.668 3.784 8.452 8.452 8.452h28.149c-7.334-9.686-11.685-21.755-11.685-34.841z" fill="#617881"/><path d="m496.048 211.352h-28.149c7.334 9.686 11.685 21.755 11.685 34.84s-4.351 25.155-11.685 34.841h28.149c4.668 0 8.452-3.784 8.452-8.452v-52.777c0-4.668-3.784-8.452-8.452-8.452z" fill="#617881"/><path d="m225.149 31.581h-40.378c-7.715 0-15.237-2.451-21.438-7.041-10.085-7.463-22.557-11.881-36.067-11.881h-80.566c-7.474 0-13.533 6.059-13.533 13.533v6.887c0 7.474 6.059 13.533 13.533 13.533h-15.954c-9.376 0-16.977 7.601-16.977 16.977v6.268c0 9.376 7.601 16.977 16.977 16.977h-6.268c-9.376 0-16.977 7.601-16.977 16.977v6.269c0 9.376 7.601 16.977 16.976 16.977h6.269c-9.376 0-16.977 7.601-16.977 16.977v6.269c0 9.376 7.601 16.977 16.977 16.977h101.079c7.985 0 14.458 6.473 14.458 14.458v24.306l.294.007c18.878.009 35.407-12.667 40.293-30.902l1.395-5.204c3.607-13.464 15.809-22.827 29.748-22.827h7.138v-115.537z" fill="#fff1dd"/><path d="m251.26 31.581v115.537h78.167c7.985 0 14.458-6.473 14.458-14.458v-101.079z" fill="#fff1dd"/><path d="m188.011 127.118c-6.036 0-11.746 1.755-16.573 4.839-15.136 9.669-32.481 15.323-50.442 15.323h-107.227v3.023c0 9.376 7.601 16.977 16.977 16.977h101.079c7.984 0 14.458 6.473 14.458 14.458v24.306l.294.007c18.878.009 35.407-12.667 40.293-30.902l1.395-5.205c3.607-13.464 15.809-22.827 29.748-22.827h7.137v-20h-37.139z" fill="#ffe4c1"/><path d="m313.885 31.581v56.29c0 21.676-17.571 39.247-39.247 39.247h-23.378v20h78.167c7.985 0 14.458-6.473 14.458-14.458v-101.079z" fill="#ffe4c1"/><path d="m244.54 484.537h34.566c1.793 0 3.246-1.453 3.246-3.246v-117.281c0-1.793-1.453-3.246-3.246-3.246h-34.566c-1.793 0-3.246 1.453-3.246 3.246v117.281c0 1.793 1.453 3.246 3.246 3.246z" fill="#b1e4f9"/><path d="m241.294 364.882h-60.391c-7.985 0-14.458 6.473-14.458 14.458v101.079h74.849z" fill="#9dc6fb"/><path d="m485.853 384.942h-6.269c9.376 0 16.977-7.601 16.977-16.977v-6.269c0-9.376-7.601-16.977-16.977-16.977h-101.079c-7.985 0-14.458-6.473-14.458-14.458l-.294-24.313c-18.878-.009-35.407 12.667-40.293 30.902l-1.395 5.204c-3.607 13.464-15.809 22.827-29.748 22.827h-9.966v115.537h43.206c7.715 0 15.237 2.451 21.438 7.041 10.085 7.463 22.557 11.881 36.067 11.881h80.566c7.474 0 13.533-6.059 13.533-13.533v-6.887c0-7.474-6.059-13.533-13.533-13.533h15.954c9.376 0 16.977-7.601 16.977-16.977v-6.268c0-9.376-7.601-16.977-16.977-16.977h6.268c9.376 0 16.977-7.601 16.977-16.977v-6.269c.003-9.376-7.598-16.977-16.974-16.977z" fill="#ffece4"/><path d="m201.294 364.882v56.29c0 20.189-15.244 36.817-34.849 39.003v20.244h74.849v-115.537z" fill="#80b4fb"/><path d="m485.853 384.942h-6.269c9.376 0 16.977-7.601 16.977-16.977v-6.269c0-9.376-7.601-16.977-16.977-16.977h-42.422v95.374c0 21.676-17.571 39.247-39.247 39.247h-54.853c-13.558 0-26.071-4.449-36.174-11.961-6.154-4.575-13.662-6.961-21.33-6.961h-3.207v20h43.207c7.715 0 15.237 2.451 21.438 7.041 10.085 7.463 22.557 11.881 36.067 11.881h80.566c7.474 0 13.533-6.059 13.533-13.533v-6.887c0-7.474-6.059-13.533-13.533-13.533h15.954c9.376 0 16.977-7.601 16.977-16.977v-6.268c0-9.376-7.601-16.977-16.977-16.977h6.268c9.376 0 16.977-7.601 16.977-16.977v-6.269c.002-9.376-7.599-16.977-16.975-16.977z" fill="#ffddce"/><path d="m421.815 286.545c22.25 0 40.353-18.102 40.353-40.353s-18.103-40.353-40.353-40.353-40.353 18.102-40.353 40.353 18.103 40.353 40.353 40.353zm0-65.705c13.979 0 25.353 11.373 25.353 25.353s-11.373 25.353-25.353 25.353-25.353-11.373-25.353-25.353 11.374-25.353 25.353-25.353z"/><path d="m496.048 203.852h-8.964v-18.245c0-6.095 1.978-12.124 5.569-16.977 8.735-11.804 13.353-25.818 13.353-40.528v-80.567c0-11.598-9.436-21.033-21.034-21.033h-6.887c-2.222 0-4.363.346-6.375.987-1.953-11.556-12.032-20.385-24.135-20.385h-6.269c-5.127 0-9.893 1.585-13.829 4.29-4.423-6.376-11.794-10.559-20.125-10.559h-6.269c-8.331 0-15.702 4.183-20.125 10.559-3.938-2.705-8.702-4.29-13.829-4.29h-6.269c-10.881 0-20.127 7.137-23.301 16.977h-78.864c-.836-10.573-9.707-18.921-20.491-18.921s-19.655 8.348-20.491 18.921h-32.943c-6.095 0-12.124-1.978-16.977-5.569-11.804-8.735-25.818-13.352-40.528-13.352h-24.149c-4.143 0-7.5 3.358-7.5 7.5s3.357 7.5 7.5 7.5h24.149c11.474 0 22.403 3.6 31.604 10.41 7.417 5.489 16.615 8.512 25.9 8.512h32.878v100.538c-17.152.162-32.184 11.787-36.63 28.384l-1.395 5.205c-3.364 12.556-13.508 21.922-25.843 24.579v-16.049c0-12.107-9.85-21.958-21.957-21.958h-101.077c-5.226 0-9.477-4.251-9.477-9.477v-6.269c0-5.226 4.251-9.477 9.477-9.477h34.703c4.143 0 7.5-3.358 7.5-7.5s-3.357-7.5-7.5-7.5h-40.971c-5.226 0-9.477-4.251-9.477-9.477v-6.269c0-5.226 4.251-9.477 9.477-9.477h40.972c4.143 0 7.5-3.358 7.5-7.5s-3.357-7.5-7.5-7.5h-34.704c-5.226 0-9.477-4.251-9.477-9.477v-6.268c0-5.226 4.252-9.477 9.478-9.477h34.702c4.143 0 7.5-3.358 7.5-7.5s-3.357-7.5-7.5-7.5h-18.748c-3.327 0-6.033-2.706-6.033-6.033v-6.887c0-3.327 2.706-6.034 6.033-6.034h21.417c4.143 0 7.5-3.358 7.5-7.5s-3.357-7.5-7.5-7.5h-21.417c-11.598 0-21.033 9.436-21.033 21.034v6.887c0 2.221.346 4.363.987 6.375-11.555 1.953-20.385 12.032-20.385 24.135v6.269c0 5.127 1.585 9.892 4.29 13.829-6.376 4.422-10.559 11.794-10.559 20.124v6.269c0 8.33 4.184 15.702 10.559 20.125-2.705 3.937-4.29 8.702-4.29 13.829v6.269c0 10.881 7.138 20.127 16.977 23.302v98.969c0 4.142 3.357 7.5 7.5 7.5s7.5-3.358 7.5-7.5v-97.795h93.58c3.836 0 6.957 3.121 6.957 6.958v111.416c0 17.303 11.673 32.515 28.386 36.993l5.204 1.395c12.556 3.364 21.923 13.508 24.58 25.842h-16.05c-12.107 0-21.957 9.85-21.957 21.958v101.08c0 5.226-4.252 9.477-9.478 9.477h-6.269c-5.226 0-9.477-4.251-9.477-9.477v-34.702c0-4.142-3.357-7.5-7.5-7.5s-7.5 3.358-7.5 7.5v40.971c0 5.226-4.251 9.477-9.477 9.477h-6.269c-5.226 0-9.478-4.251-9.478-9.477v-40.971c0-4.142-3.357-7.5-7.5-7.5s-7.5 3.358-7.5 7.5v34.702c0 5.226-4.251 9.477-9.477 9.477h-6.269c-5.226 0-9.477-4.251-9.477-9.477 0-34.37-.001.509-.001-34.702 0-4.142-3.357-7.5-7.5-7.5s-7.5 3.358-7.5 7.5c0 14.298-.001 18.943 0 18.801-.029 3.302-2.723 5.98-6.032 5.98h-6.888c-3.327 0-6.033-2.707-6.033-6.033v-80.566c0-11.476 3.6-22.404 10.41-31.605 5.488-7.417 8.511-16.615 8.511-25.899v-18.82c0-4.142-3.357-7.5-7.5-7.5s-7.5 3.358-7.5 7.5v18.82c0 6.095-1.978 12.124-5.568 16.976-8.735 11.802-13.353 25.817-13.353 40.529v80.566c0 11.598 9.436 21.033 21.033 21.033h6.888c2.222 0 4.363-.346 6.375-.987 1.953 11.556 12.032 20.385 24.135 20.385h6.269c5.127 0 9.892-1.585 13.828-4.29 4.423 6.376 11.795 10.559 20.126 10.559h6.269c8.331 0 15.702-4.183 20.125-10.559 3.937 2.705 8.701 4.29 13.828 4.29h6.269c10.882 0 20.128-7.137 23.302-16.977h63.317c1.969 2.506 5.026 4.118 8.453 4.118h34.565c3.427 0 6.484-1.612 8.453-4.118h38c6.095 0 12.123 1.978 16.976 5.569 11.804 8.735 25.818 13.352 40.529 13.352h80.566c11.598 0 21.033-9.436 21.033-21.034v-6.887c0-2.221-.346-4.363-.987-6.375 11.556-1.953 20.385-12.032 20.385-24.135v-6.269c0-5.127-1.585-9.892-4.29-13.829 6.377-4.423 10.56-11.795 10.56-20.125v-6.269c0-8.331-4.183-15.703-10.56-20.125 2.705-3.937 4.29-8.702 4.29-13.829v-6.269c0-10.881-7.138-20.127-16.977-23.302v-49.862h8.964c8.796 0 15.952-7.156 15.952-15.952v-52.777c.003-8.797-7.153-15.953-15.949-15.953zm-124.501 42.34c0-27.718 22.551-50.269 50.269-50.269s50.269 22.55 50.269 50.269-22.551 50.269-50.269 50.269-50.269-22.55-50.269-50.269zm-10.686-224.088h6.269c5.226 0 9.478 4.251 9.478 9.477v34.702c0 4.142 3.357 7.5 7.5 7.5s7.5-3.358 7.5-7.5v-40.971c0-5.226 4.251-9.477 9.477-9.477h6.269c5.226 0 9.477 4.251 9.477 9.477v40.971c0 4.142 3.357 7.5 7.5 7.5s7.5-3.358 7.5-7.5v-34.702c0-5.226 4.252-9.477 9.478-9.477h6.269c5.226 0 9.477 4.251 9.477 9.477v34.702c0 4.142 3.357 7.5 7.5 7.5s7.5-3.358 7.5-7.5v-18.748c0-3.327 2.706-6.033 6.033-6.033h6.887c3.327 0 6.034 2.707 6.034 6.033v80.566c0 11.474-3.6 22.403-10.409 31.605-5.489 7.417-8.513 16.615-8.513 25.9v18.245h-.635c-11.981-14.023-29.787-22.928-49.634-22.928s-37.653 8.904-49.634 22.928h-3.69c-4.567-10.729-13.858-18.924-25.33-21.998l-5.205-1.395c-12.555-3.364-21.922-13.508-24.579-25.842h16.049c12.107 0 21.958-9.85 21.958-21.958v-101.077c-.002-5.226 4.249-9.477 9.474-9.477zm-102.1 16.977h77.624v93.58c0 3.836-3.121 6.958-6.958 6.958h-70.666zm-26.112-13.366c0-3.063 2.492-5.556 5.556-5.556s5.556 2.492 5.556 5.556v127.269c0 3.063-2.492 5.556-5.556 5.556s-5.556-2.492-5.556-5.556zm-56.394 291.336-5.204-1.395c-10.168-2.724-17.269-11.978-17.269-22.503v-80.129c19.152-2.831 35.208-16.812 40.331-35.934l1.395-5.205c2.699-10.071 11.805-17.133 22.206-17.266.837 10.572 9.708 18.919 20.491 18.919 10.784 0 19.655-8.348 20.491-18.921h39.445c2.831 19.152 16.813 35.208 35.933 40.331l5.205 1.395c4.689 1.256 8.778 3.918 11.8 7.508h-3.496c-8.796 0-15.952 7.156-15.952 15.952v7.823c0 4.142 3.357 7.5 7.5 7.5s7.5-3.358 7.5-7.5v-7.823c0-.525.427-.952.952-.952h14.97c-7.885 17.022-8.137 37.115 0 54.681h-14.97c-.525 0-.952-.427-.952-.952v-9.954c0-4.142-3.357-7.5-7.5-7.5s-7.5 3.358-7.5 7.5v9.954c0 8.796 7.156 15.952 15.952 15.952h8.964v10.444c-19.151 2.831-35.207 16.813-40.33 35.934l-1.395 5.205c-2.725 10.167-11.979 17.268-22.504 17.268h-4.76c-1.969-2.506-5.026-4.118-8.453-4.118h-34.565c-3.427 0-6.484 1.612-8.453 4.118h-23.898c-2.831-19.152-16.813-35.209-35.934-40.332zm57.539 55.331v100.537h-59.849v-93.58c0-3.836 3.121-6.958 6.957-6.958h52.892zm15-4.118h26.058v108.773h-26.058zm230.79 9.178h-34.702c-4.143 0-7.5 3.358-7.5 7.5s3.357 7.5 7.5 7.5h40.972c5.226 0 9.477 4.251 9.477 9.477v6.269c0 5.226-4.252 9.477-9.478 9.477h-40.971c-4.143 0-7.5 3.358-7.5 7.5s3.357 7.5 7.5 7.5h34.702c5.226 0 9.477 4.251 9.477 9.477v6.269c0 5.226-4.251 9.477-9.477 9.477h-34.702c-4.143 0-7.5 3.358-7.5 7.5s3.357 7.5 7.5 7.5h18.748c3.327 0 6.033 2.706 6.033 6.033v6.887c0 3.327-2.706 6.034-6.033 6.034h-80.566c-11.475 0-22.404-3.6-31.605-10.41-7.417-5.489-16.615-8.512-25.899-8.512h-35.707v-100.538h2.467c17.303 0 32.515-11.672 36.992-28.386l1.395-5.205c3.347-12.49 13.4-21.824 25.648-24.537l.193 16.007c0 12.107 9.851 21.958 21.958 21.958h101.079c5.226 0 9.477 4.251 9.477 9.477v6.269c-.001 5.226-4.252 9.477-9.478 9.477zm-7.5-40.222h-93.579c-3.812 0-6.916-3.08-6.958-6.971v-41.716h.635c11.981 14.024 29.787 22.928 49.634 22.928s37.653-8.905 49.634-22.928h.635v48.687zm24.916-64.639c0 .525-.427.952-.952.952h-14.97c7.868-16.987 8.153-37.08 0-54.681h14.97c.525 0 .952.427.952.952z"/></g></svg>